<?xml version="1.0" standalone="no"?>
<!DOCTYPE svg PUBLIC "-//W3C//DTD SVG 1.1//EN" "http://www.w3.org/Graphics/SVG/1.1/DTD/svg11.dtd" >
<svg xmlns="http://www.w3.org/2000/svg">
<metadata>Generated by IcoMoon</metadata>
<defs>
<font id="prime-slider-font" horiz-adv-x="1024">
<font-face units-per-em="1024" ascent="960" descent="-64" />
<missing-glyph horiz-adv-x="1024" />
<glyph unicode="&#x20;" horiz-adv-x="512" d="" />
<glyph unicode="&#xe900;" glyph-name="blog" d="M972.8 130.56h-921.6c-17.408 0-30.72 13.312-30.72 30.72v573.44c0 17.408 13.312 30.72 30.72 30.72h921.6c17.408 0 30.72-13.312 30.72-30.72v-573.44c0-17.408-13.312-30.72-30.72-30.72zM51.2 744.96c-6.144 0-10.24-4.096-10.24-10.24v-573.44c0-6.144 4.096-10.24 10.24-10.24h921.6c6.144 0 10.24 4.096 10.24 10.24v573.44c0 6.144-4.096 10.24-10.24 10.24h-921.6zM596.992 262.656c-17.408 0-30.72 13.312-30.72 30.72s13.312 30.72 30.72 30.72 30.72-13.312 30.72-30.72c0-17.408-14.336-30.72-30.72-30.72zM596.992 313.856c-11.264 0-20.48-9.216-20.48-20.48s9.216-20.48 20.48-20.48 20.48 9.216 20.48 20.48-9.216 20.48-20.48 20.48zM678.912 262.656c-17.408 0-30.72 13.312-30.72 30.72s13.312 30.72 30.72 30.72 30.72-13.312 30.72-30.72c0-17.408-14.336-30.72-30.72-30.72zM678.912 313.856c-11.264 0-20.48-9.216-20.48-20.48s9.216-20.48 20.48-20.48 20.48 9.216 20.48 20.48-9.216 20.48-20.48 20.48zM586.752 528.896c0-5.655-4.585-10.24-10.24-10.24s-10.24 4.585-10.24 10.24c0 5.655 4.585 10.24 10.24 10.24s10.24-4.585 10.24-10.24zM627.712 528.896c0-5.655-4.585-10.24-10.24-10.24s-10.24 4.585-10.24 10.24c0 5.655 4.585 10.24 10.24 10.24s10.24-4.585 10.24-10.24zM668.672 528.896c0-5.655-4.585-10.24-10.24-10.24s-10.24 4.585-10.24 10.24c0 5.655 4.585 10.24 10.24 10.24s10.24-4.585 10.24-10.24zM716.8 663.040h-102.4c-6.144 0-10.24 4.096-10.24 10.24s4.096 10.24 10.24 10.24h102.4c6.144 0 10.24-4.096 10.24-10.24s-4.096-10.24-10.24-10.24zM890.88 663.040h-102.4c-6.144 0-10.24 4.096-10.24 10.24s4.096 10.24 10.24 10.24h102.4c6.144 0 10.24-4.096 10.24-10.24s-4.096-10.24-10.24-10.24zM232.448 663.040h-102.4c-6.144 0-10.24 4.096-10.24 10.24s4.096 10.24 10.24 10.24h102.4c6.144 0 10.24-4.096 10.24-10.24s-5.12-10.24-10.24-10.24zM232.448 348.672h-102.4c-6.144 0-10.24 4.096-10.24 10.24s4.096 10.24 10.24 10.24h102.4c6.144 0 10.24-4.096 10.24-10.24s-5.12-10.24-10.24-10.24zM396.288 422.4h-261.12c-8.192 0-15.36 7.168-15.36 15.36s7.168 15.36 15.36 15.36h261.12c8.192 0 15.36-7.168 15.36-15.36s-7.168-15.36-15.36-15.36zM883.712 453.12h-307.2c-6.144 0-10.24 4.096-10.24 10.24s4.096 10.24 10.24 10.24h307.2c6.144 0 10.24-4.096 10.24-10.24s-5.12-10.24-10.24-10.24zM800.768 401.92h-225.28c-6.144 0-10.24 4.096-10.24 10.24s4.096 10.24 10.24 10.24h225.28c6.144 0 10.24-4.096 10.24-10.24s-5.12-10.24-10.24-10.24z" />
<glyph unicode="&#xe901;" glyph-name="blog_skin_coral" d="M986.112 371.2h-241.664c-4.096 0-7.168 3.072-7.168 7.168v139.264c0 4.096 3.072 7.168 7.168 7.168h242.688c4.096 0 7.168-3.072 7.168-7.168v-139.264c-1.024-4.096-4.096-7.168-8.192-7.168zM972.8 130.56h-921.6c-17.408 0-30.72 13.312-30.72 30.72v573.44c0 17.408 13.312 30.72 30.72 30.72h921.6c17.408 0 30.72-13.312 30.72-30.72v-573.44c0-17.408-13.312-30.72-30.72-30.72zM51.2 744.96c-6.144 0-10.24-4.096-10.24-10.24v-573.44c0-6.144 4.096-10.24 10.24-10.24h921.6c6.144 0 10.24 4.096 10.24 10.24v573.44c0 6.144-4.096 10.24-10.24 10.24h-921.6zM716.8 663.040h-102.4c-6.144 0-10.24 4.096-10.24 10.24s4.096 10.24 10.24 10.24h102.4c6.144 0 10.24-4.096 10.24-10.24s-4.096-10.24-10.24-10.24zM244.736 663.040h-102.4c-6.144 0-10.24 4.096-10.24 10.24s4.096 10.24 10.24 10.24h102.4c6.144 0 10.24-4.096 10.24-10.24s-4.096-10.24-10.24-10.24zM890.88 663.040h-102.4c-6.144 0-10.24 4.096-10.24 10.24s4.096 10.24 10.24 10.24h102.4c6.144 0 10.24-4.096 10.24-10.24s-4.096-10.24-10.24-10.24zM584.704 437.76h-332.8c-8.192 0-15.36 7.168-15.36 15.36s7.168 15.36 15.36 15.36h332.8c8.192 0 15.36-7.168 15.36-15.36s-7.168-15.36-15.36-15.36zM359.424 366.080h-112.64c-6.144 0-10.24 4.096-10.24 10.24s4.096 10.24 10.24 10.24h112.64c6.144 0 10.24-4.096 10.24-10.24s-5.12-10.24-10.24-10.24zM957.44 468.48c0-5.655-4.585-10.24-10.24-10.24s-10.24 4.585-10.24 10.24c0 5.655 4.585 10.24 10.24 10.24s10.24-4.585 10.24-10.24zM957.44 427.52c0-5.655-4.585-10.24-10.24-10.24s-10.24 4.585-10.24 10.24c0 5.655 4.585 10.24 10.24 10.24s10.24-4.585 10.24-10.24zM157.696 376.32c0-5.655-4.585-10.24-10.24-10.24s-10.24 4.585-10.24 10.24c0 5.655 4.585 10.24 10.24 10.24s10.24-4.585 10.24-10.24zM157.696 417.28c0-5.655-4.585-10.24-10.24-10.24s-10.24 4.585-10.24 10.24c0 5.655 4.585 10.24 10.24 10.24s10.24-4.585 10.24-10.24zM157.696 458.24c0-5.655-4.585-10.24-10.24-10.24s-10.24 4.585-10.24 10.24c0 5.655 4.585 10.24 10.24 10.24s10.24-4.585 10.24-10.24zM904.192 463.36c2.048-3.072 4.096-8.192 4.096-12.288v-73.728c0-4.096-3.072-7.168-7.168-7.168h-156.672c-4.096 0-7.168 3.072-7.168 7.168v43.008c0 4.096 2.048 9.216 5.12 11.264l48.128 37.888c3.072 2.048 7.168 2.048 10.24-1.024l20.48-20.48c2.048-2.048 7.168-2.048 9.216 0l44.032 44.032c2.048 2.048 7.168 2.048 9.216-1.024l20.48-27.648z" />
<glyph unicode="&#xe902;" glyph-name="blog_skin_folio" d="M972.8 130.56h-921.6c-17.408 0-30.72 13.312-30.72 30.72v573.44c0 17.408 13.312 30.72 30.72 30.72h921.6c17.408 0 30.72-13.312 30.72-30.72v-573.44c0-17.408-13.312-30.72-30.72-30.72zM51.2 744.96c-6.144 0-10.24-4.096-10.24-10.24v-573.44c0-6.144 4.096-10.24 10.24-10.24h921.6c6.144 0 10.24 4.096 10.24 10.24v573.44c0 6.144-4.096 10.24-10.24 10.24h-921.6zM716.8 663.040h-102.4c-6.144 0-10.24 4.096-10.24 10.24s4.096 10.24 10.24 10.24h102.4c6.144 0 10.24-4.096 10.24-10.24s-4.096-10.24-10.24-10.24zM244.736 663.040h-102.4c-6.144 0-10.24 4.096-10.24 10.24s4.096 10.24 10.24 10.24h102.4c6.144 0 10.24-4.096 10.24-10.24s-4.096-10.24-10.24-10.24zM890.88 663.040h-102.4c-6.144 0-10.24 4.096-10.24 10.24s4.096 10.24 10.24 10.24h102.4c6.144 0 10.24-4.096 10.24-10.24s-4.096-10.24-10.24-10.24zM730.112 422.4h-435.2c-8.192 0-15.36 7.168-15.36 15.36s7.168 15.36 15.36 15.36h435.2c8.192 0 15.36-7.168 15.36-15.36s-7.168-15.36-15.36-15.36zM306.176 251.392h-163.84c-6.144 0-10.24 4.096-10.24 10.24s4.096 10.24 10.24 10.24h163.84c6.144 0 10.24-4.096 10.24-10.24s-5.12-10.24-10.24-10.24zM234.496 210.432h-92.16c-6.144 0-10.24 4.096-10.24 10.24s4.096 10.24 10.24 10.24h92.16c6.144 0 10.24-4.096 10.24-10.24s-5.12-10.24-10.24-10.24zM593.92 251.392h-163.84c-6.144 0-10.24 4.096-10.24 10.24s4.096 10.24 10.24 10.24h163.84c6.144 0 10.24-4.096 10.24-10.24s-5.12-10.24-10.24-10.24zM522.24 210.432h-92.16c-6.144 0-10.24 4.096-10.24 10.24s4.096 10.24 10.24 10.24h92.16c6.144 0 10.24-4.096 10.24-10.24s-5.12-10.24-10.24-10.24zM881.664 251.392h-163.84c-6.144 0-10.24 4.096-10.24 10.24s4.096 10.24 10.24 10.24h163.84c6.144 0 10.24-4.096 10.24-10.24s-5.12-10.24-10.24-10.24zM809.984 210.432h-92.16c-6.144 0-10.24 4.096-10.24 10.24s4.096 10.24 10.24 10.24h92.16c6.144 0 10.24-4.096 10.24-10.24s-5.12-10.24-10.24-10.24zM645.12 483.84h-266.24c-6.144 0-10.24 4.096-10.24 10.24s4.096 10.24 10.24 10.24h266.24c6.144 0 10.24-4.096 10.24-10.24s-5.12-10.24-10.24-10.24z" />
<glyph unicode="&#xe903;" glyph-name="blog_skin_zinest" d="M972.8 130.56h-921.6c-17.408 0-30.72 13.312-30.72 30.72v573.44c0 17.408 13.312 30.72 30.72 30.72h921.6c17.408 0 30.72-13.312 30.72-30.72v-573.44c0-17.408-13.312-30.72-30.72-30.72zM51.2 744.96c-6.144 0-10.24-4.096-10.24-10.24v-573.44c0-6.144 4.096-10.24 10.24-10.24h921.6c6.144 0 10.24 4.096 10.24 10.24v573.44c0 6.144-4.096 10.24-10.24 10.24h-921.6zM716.8 663.040h-102.4c-6.144 0-10.24 4.096-10.24 10.24s4.096 10.24 10.24 10.24h102.4c6.144 0 10.24-4.096 10.24-10.24s-4.096-10.24-10.24-10.24zM244.736 663.040h-102.4c-6.144 0-10.24 4.096-10.24 10.24s4.096 10.24 10.24 10.24h102.4c6.144 0 10.24-4.096 10.24-10.24s-4.096-10.24-10.24-10.24zM890.88 663.040h-102.4c-6.144 0-10.24 4.096-10.24 10.24s4.096 10.24 10.24 10.24h102.4c6.144 0 10.24-4.096 10.24-10.24s-4.096-10.24-10.24-10.24zM705.536 422.4h-435.2c-8.192 0-15.36 7.168-15.36 15.36s7.168 15.36 15.36 15.36h435.2c8.192 0 15.36-7.168 15.36-15.36s-7.168-15.36-15.36-15.36zM429.056 251.392h-163.84c-6.144 0-10.24 4.096-10.24 10.24s4.096 10.24 10.24 10.24h163.84c6.144 0 10.24-4.096 10.24-10.24s-5.12-10.24-10.24-10.24zM357.376 210.432h-92.16c-6.144 0-10.24 4.096-10.24 10.24s4.096 10.24 10.24 10.24h92.16c6.144 0 10.24-4.096 10.24-10.24s-5.12-10.24-10.24-10.24zM653.312 251.392h-163.84c-6.144 0-10.24 4.096-10.24 10.24s4.096 10.24 10.24 10.24h163.84c6.144 0 10.24-4.096 10.24-10.24s-5.12-10.24-10.24-10.24zM581.632 210.432h-92.16c-6.144 0-10.24 4.096-10.24 10.24s4.096 10.24 10.24 10.24h92.16c6.144 0 10.24-4.096 10.24-10.24s-5.12-10.24-10.24-10.24zM881.664 251.392h-163.84c-6.144 0-10.24 4.096-10.24 10.24s4.096 10.24 10.24 10.24h163.84c6.144 0 10.24-4.096 10.24-10.24s-5.12-10.24-10.24-10.24zM809.984 210.432h-92.16c-6.144 0-10.24 4.096-10.24 10.24s4.096 10.24 10.24 10.24h92.16c6.144 0 10.24-4.096 10.24-10.24s-5.12-10.24-10.24-10.24zM531.456 483.84h-266.24c-6.144 0-10.24 4.096-10.24 10.24s4.096 10.24 10.24 10.24h266.24c6.144 0 10.24-4.096 10.24-10.24s-5.12-10.24-10.24-10.24z" />
<glyph unicode="&#xe904;" glyph-name="general" d="M972.8 130.56h-921.6c-17.408 0-30.72 13.312-30.72 30.72v573.44c0 17.408 13.312 30.72 30.72 30.72h921.6c17.408 0 30.72-13.312 30.72-30.72v-573.44c0-17.408-13.312-30.72-30.72-30.72zM51.2 744.96c-6.144 0-10.24-4.096-10.24-10.24v-573.44c0-6.144 4.096-10.24 10.24-10.24h921.6c6.144 0 10.24 4.096 10.24 10.24v573.44c0 6.144-4.096 10.24-10.24 10.24h-921.6zM232.448 663.040h-102.4c-6.144 0-10.24 4.096-10.24 10.24s4.096 10.24 10.24 10.24h102.4c6.144 0 10.24-4.096 10.24-10.24s-5.12-10.24-10.24-10.24zM543.744 480.768h-409.6c-8.192 0-15.36 7.168-15.36 15.36s7.168 15.36 15.36 15.36h409.6c8.192 0 15.36-7.168 15.36-15.36s-7.168-15.36-15.36-15.36zM386.048 399.872h-256c-6.144 0-10.24 4.096-10.24 10.24s4.096 10.24 10.24 10.24h256c6.144 0 10.24-4.096 10.24-10.24s-5.12-10.24-10.24-10.24zM282.624 348.672h-153.6c-6.144 0-10.24 4.096-10.24 10.24s4.096 10.24 10.24 10.24h153.6c6.144 0 10.24-4.096 10.24-10.24s-4.096-10.24-10.24-10.24zM890.88 366.080c-3.072 0-5.12 2.048-5.12 5.12v153.6c0 3.072 2.048 5.12 5.12 5.12s5.12-2.048 5.12-5.12v-153.6c0-3.072-2.048-5.12-5.12-5.12zM890.88 365.056c-1.024 0-3.072 0-4.096 1.024l-25.6 25.6c-2.048 2.048-2.048 5.12 0 7.168s5.12 2.048 7.168 0l25.6-25.6c2.048-2.048 2.048-5.12 0-7.168 0 0-2.048-1.024-3.072-1.024zM890.88 365.056c-1.024 0-3.072 0-4.096 1.024-2.048 2.048-2.048 5.12 0 7.168l25.6 25.6c2.048 2.048 5.12 2.048 7.168 0s2.048-5.12 0-7.168l-25.6-25.6c0 0-2.048-1.024-3.072-1.024zM716.8 663.040h-102.4c-6.144 0-10.24 4.096-10.24 10.24s4.096 10.24 10.24 10.24h102.4c6.144 0 10.24-4.096 10.24-10.24s-4.096-10.24-10.24-10.24zM890.88 663.040h-102.4c-6.144 0-10.24 4.096-10.24 10.24s4.096 10.24 10.24 10.24h102.4c6.144 0 10.24-4.096 10.24-10.24s-4.096-10.24-10.24-10.24zM783.36 221.696c-17.408 0-30.72 13.312-30.72 30.72s13.312 30.72 30.72 30.72 30.72-13.312 30.72-30.72-13.312-30.72-30.72-30.72zM783.36 272.896c-11.264 0-20.48-9.216-20.48-20.48s9.216-20.48 20.48-20.48 20.48 9.216 20.48 20.48-9.216 20.48-20.48 20.48zM865.28 221.696c-17.408 0-30.72 13.312-30.72 30.72s13.312 30.72 30.72 30.72 30.72-13.312 30.72-30.72-13.312-30.72-30.72-30.72zM865.28 272.896c-11.264 0-20.48-9.216-20.48-20.48s9.216-20.48 20.48-20.48 20.48 9.216 20.48 20.48-9.216 20.48-20.48 20.48zM150.528 231.936c0-5.655-4.585-10.24-10.24-10.24s-10.24 4.585-10.24 10.24c0 5.655 4.585 10.24 10.24 10.24s10.24-4.585 10.24-10.24zM191.488 231.936c0-5.655-4.585-10.24-10.24-10.24s-10.24 4.585-10.24 10.24c0 5.655 4.585 10.24 10.24 10.24s10.24-4.585 10.24-10.24zM232.448 231.936c0-5.655-4.585-10.24-10.24-10.24s-10.24 4.585-10.24 10.24c0 5.655 4.585 10.24 10.24 10.24s10.24-4.585 10.24-10.24z" />
<glyph unicode="&#xe905;" glyph-name="general_skin_crelly" d="M972.8 130.56h-921.6c-17.408 0-30.72 13.312-30.72 30.72v573.44c0 17.408 13.312 30.72 30.72 30.72h921.6c17.408 0 30.72-13.312 30.72-30.72v-573.44c0-17.408-13.312-30.72-30.72-30.72zM51.2 744.96c-6.144 0-10.24-4.096-10.24-10.24v-573.44c0-6.144 4.096-10.24 10.24-10.24h921.6c6.144 0 10.24 4.096 10.24 10.24v573.44c0 6.144-4.096 10.24-10.24 10.24h-921.6zM140.288 488.96c0-5.655-4.585-10.24-10.24-10.24s-10.24 4.585-10.24 10.24c0 5.655 4.585 10.24 10.24 10.24s10.24-4.585 10.24-10.24zM140.288 448c0-5.655-4.585-10.24-10.24-10.24s-10.24 4.585-10.24 10.24c0 5.655 4.585 10.24 10.24 10.24s10.24-4.585 10.24-10.24zM140.288 407.040c0-5.655-4.585-10.24-10.24-10.24s-10.24 4.585-10.24 10.24c0 5.655 4.585 10.24 10.24 10.24s10.24-4.585 10.24-10.24zM716.8 663.040h-102.4c-6.144 0-10.24 4.096-10.24 10.24s4.096 10.24 10.24 10.24h102.4c6.144 0 10.24-4.096 10.24-10.24s-4.096-10.24-10.24-10.24zM890.88 663.040h-102.4c-6.144 0-10.24 4.096-10.24 10.24s4.096 10.24 10.24 10.24h102.4c6.144 0 10.24-4.096 10.24-10.24s-4.096-10.24-10.24-10.24zM232.448 663.040h-102.4c-6.144 0-10.24 4.096-10.24 10.24s4.096 10.24 10.24 10.24h102.4c6.144 0 10.24-4.096 10.24-10.24s-5.12-10.24-10.24-10.24zM580.608 287.232h-256c-6.144 0-10.24 4.096-10.24 10.24s4.096 10.24 10.24 10.24h256c6.144 0 10.24-4.096 10.24-10.24s-5.12-10.24-10.24-10.24zM529.408 499.2h-204.8c-6.144 0-10.24 4.096-10.24 10.24s4.096 10.24 10.24 10.24h204.8c6.144 0 10.24-4.096 10.24-10.24s-5.12-10.24-10.24-10.24zM795.648 432.64h-465.92c-8.192 0-15.36 7.168-15.36 15.36s7.168 15.36 15.36 15.36h465.92c8.192 0 15.36-7.168 15.36-15.36s-7.168-15.36-15.36-15.36zM683.008 328.192h-358.4c-6.144 0-10.24 4.096-10.24 10.24s4.096 10.24 10.24 10.24h358.4c6.144 0 10.24-4.096 10.24-10.24s-5.12-10.24-10.24-10.24zM130.048 282.112c-17.408 0-30.72 13.312-30.72 30.72s13.312 30.72 30.72 30.72 30.72-13.312 30.72-30.72-13.312-30.72-30.72-30.72zM130.048 333.312c-11.264 0-20.48-9.216-20.48-20.48s9.216-20.48 20.48-20.48 20.48 9.216 20.48 20.48-9.216 20.48-20.48 20.48zM130.048 210.432c-17.408 0-30.72 13.312-30.72 30.72s13.312 30.72 30.72 30.72 30.72-13.312 30.72-30.72-13.312-30.72-30.72-30.72zM130.048 261.632c-11.264 0-20.48-9.216-20.48-20.48s9.216-20.48 20.48-20.48 20.48 9.216 20.48 20.48-9.216 20.48-20.48 20.48z" />
<glyph unicode="&#xe906;" glyph-name="general_skin_meteor" d="M972.8 130.56h-921.6c-17.408 0-30.72 13.312-30.72 30.72v573.44c0 17.408 13.312 30.72 30.72 30.72h921.6c17.408 0 30.72-13.312 30.72-30.72v-573.44c0-17.408-13.312-30.72-30.72-30.72zM51.2 744.96c-6.144 0-10.24-4.096-10.24-10.24v-573.44c0-6.144 4.096-10.24 10.24-10.24h921.6c6.144 0 10.24 4.096 10.24 10.24v573.44c0 6.144-4.096 10.24-10.24 10.24h-921.6zM901.12 488.96c0-5.655-4.585-10.24-10.24-10.24s-10.24 4.585-10.24 10.24c0 5.655 4.585 10.24 10.24 10.24s10.24-4.585 10.24-10.24zM901.12 448c0-5.655-4.585-10.24-10.24-10.24s-10.24 4.585-10.24 10.24c0 5.655 4.585 10.24 10.24 10.24s10.24-4.585 10.24-10.24zM901.12 407.040c0-5.655-4.585-10.24-10.24-10.24s-10.24 4.585-10.24 10.24c0 5.655 4.585 10.24 10.24 10.24s10.24-4.585 10.24-10.24zM716.8 663.040h-102.4c-6.144 0-10.24 4.096-10.24 10.24s4.096 10.24 10.24 10.24h102.4c6.144 0 10.24-4.096 10.24-10.24s-4.096-10.24-10.24-10.24zM890.88 663.040h-102.4c-6.144 0-10.24 4.096-10.24 10.24s4.096 10.24 10.24 10.24h102.4c6.144 0 10.24-4.096 10.24-10.24s-4.096-10.24-10.24-10.24zM232.448 663.040h-102.4c-6.144 0-10.24 4.096-10.24 10.24s4.096 10.24 10.24 10.24h102.4c6.144 0 10.24-4.096 10.24-10.24s-5.12-10.24-10.24-10.24zM232.448 338.432h-102.4c-6.144 0-10.24 4.096-10.24 10.24s4.096 10.24 10.24 10.24h102.4c6.144 0 10.24-4.096 10.24-10.24s-5.12-10.24-10.24-10.24zM334.848 499.2h-204.8c-6.144 0-10.24 4.096-10.24 10.24s4.096 10.24 10.24 10.24h204.8c6.144 0 10.24-4.096 10.24-10.24s-5.12-10.24-10.24-10.24zM498.688 432.64h-363.52c-8.192 0-15.36 7.168-15.36 15.36s7.168 15.36 15.36 15.36h363.52c8.192 0 15.36-7.168 15.36-15.36s-7.168-15.36-15.36-15.36zM782.336 227.84h-204.8c-6.144 0-10.24 4.096-10.24 10.24s4.096 10.24 10.24 10.24h204.8c6.144 0 10.24-4.096 10.24-10.24s-5.12-10.24-10.24-10.24zM699.392 186.88h-122.88c-6.144 0-10.24 4.096-10.24 10.24s4.096 10.24 10.24 10.24h122.88c6.144 0 10.24-4.096 10.24-10.24s-5.12-10.24-10.24-10.24zM532.48 256.512c2.048-3.072 3.072-7.168 3.072-10.24v-61.44c0-3.072-3.072-6.144-6.144-6.144h-131.072c-3.072 0-6.144 3.072-6.144 6.144v35.84c0 3.072 2.048 7.168 4.096 9.216l39.936 32.768c2.048 2.048 6.144 2.048 8.192-1.024l17.408-17.408c2.048-2.048 6.144-2.048 8.192 0l36.864 36.864c2.048 2.048 6.144 2.048 7.168-1.024l18.432-23.552z" />
<glyph unicode="&#xe907;" glyph-name="general_skin_slide" d="M972.8 130.56h-921.6c-17.408 0-30.72 13.312-30.72 30.72v573.44c0 17.408 13.312 30.72 30.72 30.72h921.6c17.408 0 30.72-13.312 30.72-30.72v-573.44c0-17.408-13.312-30.72-30.72-30.72zM51.2 744.96c-6.144 0-10.24-4.096-10.24-10.24v-573.44c0-6.144 4.096-10.24 10.24-10.24h921.6c6.144 0 10.24 4.096 10.24 10.24v573.44c0 6.144-4.096 10.24-10.24 10.24h-921.6zM716.8 663.040h-102.4c-6.144 0-10.24 4.096-10.24 10.24s4.096 10.24 10.24 10.24h102.4c6.144 0 10.24-4.096 10.24-10.24s-4.096-10.24-10.24-10.24zM890.88 663.040h-102.4c-6.144 0-10.24 4.096-10.24 10.24s4.096 10.24 10.24 10.24h102.4c6.144 0 10.24-4.096 10.24-10.24s-4.096-10.24-10.24-10.24zM232.448 663.040h-102.4c-6.144 0-10.24 4.096-10.24 10.24s4.096 10.24 10.24 10.24h102.4c6.144 0 10.24-4.096 10.24-10.24s-5.12-10.24-10.24-10.24zM745.472 427.52h-465.92c-8.192 0-15.36 7.168-15.36 15.36s7.168 15.36 15.36 15.36h465.92c8.192 0 15.36-7.168 15.36-15.36s-7.168-15.36-15.36-15.36zM640 355.84h-256c-6.144 0-10.24 4.096-10.24 10.24s4.096 10.24 10.24 10.24h256c6.144 0 10.24-4.096 10.24-10.24s-5.12-10.24-10.24-10.24zM899.072 453.12h-31.744c-8.192 0-14.336 6.144-14.336 14.336v31.744c0 8.192 6.144 14.336 14.336 14.336h31.744c8.192 0 14.336-6.144 14.336-14.336v-31.744c0-8.192-6.144-14.336-14.336-14.336zM866.304 504.32c-2.048 0-4.096-2.048-4.096-4.096v-31.744c0-2.048 2.048-4.096 4.096-4.096h31.744c2.048 0 4.096 2.048 4.096 4.096v31.744c0 2.048-2.048 4.096-4.096 4.096h-31.744zM899.072 381.44h-31.744c-8.192 0-14.336 6.144-14.336 14.336v31.744c0 8.192 6.144 14.336 14.336 14.336h31.744c8.192 0 14.336-6.144 14.336-14.336v-31.744c0-8.192-6.144-14.336-14.336-14.336zM866.304 432.64c-2.048 0-4.096-2.048-4.096-4.096v-31.744c0-2.048 2.048-4.096 4.096-4.096h31.744c2.048 0 4.096 2.048 4.096 4.096v31.744c0 2.048-2.048 4.096-4.096 4.096h-31.744zM124.928 311.808v0c-3.072 0-5.12 2.048-5.12 5.12v20.48c0 3.072 2.048 5.12 5.12 5.12v0c3.072 0 5.12-2.048 5.12-5.12v-20.48c0-2.048-2.048-5.12-5.12-5.12zM124.928 270.848v0c-3.072 0-5.12 2.048-5.12 5.12v20.48c0 3.072 2.048 5.12 5.12 5.12v0c3.072 0 5.12-2.048 5.12-5.12v-20.48c0-2.048-2.048-5.12-5.12-5.12zM124.928 229.888v0c-3.072 0-5.12 2.048-5.12 5.12v20.48c0 3.072 2.048 5.12 5.12 5.12v0c3.072 0 5.12-2.048 5.12-5.12v-20.48c0-2.048-2.048-5.12-5.12-5.12zM142.336 321.024c-1.024 1.024-1.024 2.048-1.024 3.072v6.144c0 1.024 0 2.048 1.024 3.072s2.048 1.024 3.072 1.024c1.024 0 2.048 0 3.072-1.024s1.024-2.048 1.024-3.072v-6.144c0-1.024 0-2.048-1.024-3.072s-2.048-1.024-3.072-1.024c-1.024 0-2.048 1.024-3.072 1.024zM147.456 323.072c0 0 0 1.024 0 2.048v5.12c0 1.024 0 1.024 0 2.048 0 0-1.024 1.024-1.024 1.024s-1.024 0-1.024-1.024c0 0 0-1.024 0-2.048v-5.12c0-1.024 0-1.024 0-2.048 0 0 1.024-1.024 1.024-1.024s0 1.024 1.024 1.024zM156.672 320h-3.072v11.264l-2.048-1.024v3.072l2.048 1.024h2.048v-14.336z" />
<glyph unicode="&#xe908;" glyph-name="isolate" d="M232.448 663.040h-102.4c-6.144 0-10.24 4.096-10.24 10.24s4.096 10.24 10.24 10.24h102.4c6.144 0 10.24-4.096 10.24-10.24s-5.12-10.24-10.24-10.24zM396.288 480.768h-261.12c-8.192 0-15.36 7.168-15.36 15.36s7.168 15.36 15.36 15.36h261.12c8.192 0 15.36-7.168 15.36-15.36s-7.168-15.36-15.36-15.36zM335.872 399.872h-204.8c-6.144 0-10.24 4.096-10.24 10.24s4.096 10.24 10.24 10.24h204.8c6.144 0 10.24-4.096 10.24-10.24s-5.12-10.24-10.24-10.24zM252.928 348.672h-122.88c-6.144 0-10.24 4.096-10.24 10.24s4.096 10.24 10.24 10.24h122.88c6.144 0 10.24-4.096 10.24-10.24s-4.096-10.24-10.24-10.24zM716.8 663.040h-102.4c-6.144 0-10.24 4.096-10.24 10.24s4.096 10.24 10.24 10.24h102.4c6.144 0 10.24-4.096 10.24-10.24s-4.096-10.24-10.24-10.24zM890.88 663.040h-102.4c-6.144 0-10.24 4.096-10.24 10.24s4.096 10.24 10.24 10.24h102.4c6.144 0 10.24-4.096 10.24-10.24s-4.096-10.24-10.24-10.24zM150.528 231.936c0-5.655-4.585-10.24-10.24-10.24s-10.24 4.585-10.24 10.24c0 5.655 4.585 10.24 10.24 10.24s10.24-4.585 10.24-10.24zM191.488 231.936c0-5.655-4.585-10.24-10.24-10.24s-10.24 4.585-10.24 10.24c0 5.655 4.585 10.24 10.24 10.24s10.24-4.585 10.24-10.24zM232.448 231.936c0-5.655-4.585-10.24-10.24-10.24s-10.24 4.585-10.24 10.24c0 5.655 4.585 10.24 10.24 10.24s10.24-4.585 10.24-10.24zM972.8 765.44h-921.6c-17.408 0-30.72-13.312-30.72-30.72v-573.44c0-17.408 13.312-30.72 30.72-30.72h932.864c10.24 0 19.456 8.192 19.456 19.456v584.704c0 17.408-13.312 30.72-30.72 30.72zM522.24 744.96h450.56c6.144 0 10.24-4.096 10.24-10.24v-324.608l-50.176 69.632c-6.144 9.216-18.432 9.216-25.6 2.048l-126.976-126.976c-7.168-7.168-20.48-7.168-27.648 0l-58.368 58.368c-8.192 8.192-21.504 9.216-29.696 2.048l-137.216-110.592c-2.048-1.024-3.072-3.072-5.12-5.12v82.944c31.744 5.12 56.32 32.768 56.32 65.536s-24.576 60.416-56.32 65.536v231.424zM501.76 392.704c-25.6 5.12-46.080 27.648-46.080 55.296s20.48 50.176 46.080 55.296c3.072 1.024 7.168 1.024 10.24 1.024s7.168 0 10.24-1.024c25.6-5.12 46.080-27.648 46.080-55.296s-20.48-50.176-46.080-55.296c-3.072-1.024-7.168-1.024-10.24-1.024s-7.168 0-10.24 1.024zM501.76 151.040h-450.56c-6.144 0-10.24 4.096-10.24 10.24v573.44c0 6.144 4.096 10.24 10.24 10.24h450.56v-231.424c-31.744-5.12-56.32-32.768-56.32-65.536s24.576-60.416 56.32-65.536v-231.424zM766.976 443.904c17.408 0 31.744 14.336 31.744 31.744s-14.336 31.744-31.744 31.744c-17.408 0-31.744-14.336-31.744-31.744s14.336-31.744 31.744-31.744zM524.288 452.096l-18.432 10.24c-3.072 2.048-8.192 0-8.192-4.096v-20.48c0-4.096 4.096-6.144 8.192-4.096l18.432 10.24c3.072 2.048 3.072 6.144 0 8.192z" />
<glyph unicode="&#xe909;" glyph-name="isolate_skin_locate" d="M716.8 663.040h-102.4c-6.144 0-10.24 4.096-10.24 10.24s4.096 10.24 10.24 10.24h102.4c6.144 0 10.24-4.096 10.24-10.24s-4.096-10.24-10.24-10.24zM890.88 663.040h-102.4c-6.144 0-10.24 4.096-10.24 10.24s4.096 10.24 10.24 10.24h102.4c6.144 0 10.24-4.096 10.24-10.24s-4.096-10.24-10.24-10.24zM865.28 427.52h-302.080c-8.192 0-15.36 7.168-15.36 15.36s7.168 15.36 15.36 15.36h302.080c8.192 0 15.36-7.168 15.36-15.36s-7.168-15.36-15.36-15.36zM773.12 355.84h-215.040c-6.144 0-10.24 4.096-10.24 10.24s4.096 10.24 10.24 10.24h215.040c6.144 0 10.24-4.096 10.24-10.24s-5.12-10.24-10.24-10.24zM660.48 480.768h-102.4c-6.144 0-10.24 4.096-10.24 10.24s4.096 10.24 10.24 10.24h102.4c6.144 0 10.24-4.096 10.24-10.24s-5.12-10.24-10.24-10.24zM972.8 765.44h-921.6c-17.408 0-30.72-13.312-30.72-30.72v-573.44c0-17.408 13.312-30.72 30.72-30.72h921.6c17.408 0 30.72 13.312 30.72 30.72v573.44c0 17.408-13.312 30.72-30.72 30.72zM51.2 151.040c-6.144 0-10.24 4.096-10.24 10.24v573.44c0 6.144 4.096 10.24 10.24 10.24h244.736v-87.040h-152.576c-17.408 0-30.72-13.312-30.72-30.72v-376.832c0-17.408 13.312-30.72 30.72-30.72h152.576v-68.608h-244.736zM481.28 421.376c-1.024 3.072-3.072 6.144-4.096 8.192l-43.008 60.416c-4.096 6.144-13.312 6.144-18.432 1.024l-92.16-92.16c-5.12-5.12-15.36-5.12-20.48 0l-43.008 43.008c-6.144 5.12-15.36 6.144-21.504 1.024l-100.352-80.896c-2.048-2.048-3.072-4.096-5.12-6.144v271.36c0 5.12 5.12 10.24 10.24 10.24h327.68c5.12 0 10.24-5.12 10.24-10.24v-205.824zM983.040 161.28c0-6.144-4.096-10.24-10.24-10.24h-656.384v68.608h154.624c17.408 0 30.72 13.312 30.72 30.72v376.832c0 17.408-13.312 30.72-30.72 30.72h-154.624v87.040h656.384c6.144 0 10.24-4.096 10.24-10.24v-573.44zM307.2 500.224c-10.24 0-19.456-9.216-19.456-19.456s9.216-19.456 19.456-19.456 19.456 9.216 19.456 19.456c0 10.24-9.216 19.456-19.456 19.456zM391.168 187.904v0c0-3.072-2.048-5.12-5.12-5.12h-30.72c-3.072 0-5.12 2.048-5.12 5.12v0c0 3.072 2.048 5.12 5.12 5.12h30.72c2.048 0 5.12-2.048 5.12-5.12zM442.368 187.904v0c0-3.072-2.048-5.12-5.12-5.12h-30.72c-3.072 0-5.12 2.048-5.12 5.12v0c0 3.072 2.048 5.12 5.12 5.12h30.72c2.048 0 5.12-2.048 5.12-5.12z" />
<glyph unicode="&#xe90a;" glyph-name="isolate_skin_slice" d="M337.92 756.224h20.48v-616.448h-20.48v616.448zM686.080 755.2v-143.36c-3.072 0-7.168 0-10.24 0s-7.168 0-10.24 0v143.36h20.48zM675.84 284.16c3.072 0 7.168 0 10.24 0v-144.384h-20.48v144.384c3.072 0 7.168 0 10.24 0zM972.8 130.56h-921.6c-17.408 0-30.72 13.312-30.72 30.72v573.44c0 17.408 13.312 30.72 30.72 30.72h921.6c17.408 0 30.72-13.312 30.72-30.72v-573.44c0-17.408-13.312-30.72-30.72-30.72zM51.2 744.96c-6.144 0-10.24-4.096-10.24-10.24v-573.44c0-6.144 4.096-10.24 10.24-10.24h921.6c6.144 0 10.24 4.096 10.24 10.24v573.44c0 6.144-4.096 10.24-10.24 10.24h-921.6zM563.2 663.040h-102.4c-6.144 0-10.24 4.096-10.24 10.24s4.096 10.24 10.24 10.24h102.4c6.144 0 10.24-4.096 10.24-10.24s-4.096-10.24-10.24-10.24zM191.488 663.040h-102.4c-6.144 0-10.24 4.096-10.24 10.24s4.096 10.24 10.24 10.24h102.4c6.144 0 10.24-4.096 10.24-10.24s-4.096-10.24-10.24-10.24zM890.88 663.040h-102.4c-6.144 0-10.24 4.096-10.24 10.24s4.096 10.24 10.24 10.24h102.4c6.144 0 10.24-4.096 10.24-10.24s-4.096-10.24-10.24-10.24zM304.128 427.52h-209.92c-8.192 0-15.36 7.168-15.36 15.36s7.168 15.36 15.36 15.36h209.92c8.192 0 15.36-7.168 15.36-15.36s-7.168-15.36-15.36-15.36zM252.928 275.968h-163.84c-6.144 0-10.24 4.096-10.24 10.24s4.096 10.24 10.24 10.24h163.84c6.144 0 10.24-4.096 10.24-10.24s-5.12-10.24-10.24-10.24zM181.248 235.008h-92.16c-6.144 0-10.24 4.096-10.24 10.24s4.096 10.24 10.24 10.24h92.16c6.144 0 10.24-4.096 10.24-10.24s-5.12-10.24-10.24-10.24zM191.488 480.768h-102.4c-6.144 0-10.24 4.096-10.24 10.24s4.096 10.24 10.24 10.24h102.4c6.144 0 10.24-4.096 10.24-10.24s-5.12-10.24-10.24-10.24zM848.896 436.736v-10.24c-9.216-78.848-69.632-140.288-146.432-152.576h-53.248c-66.56 10.24-119.808 57.344-139.264 119.808 1.024 1.024 2.048 2.048 3.072 3.072l96.256 77.824c6.144 5.12 15.36 4.096 20.48-1.024l40.96-40.96c5.12-5.12 14.336-5.12 19.456 0l89.088 89.088c5.12 5.12 13.312 5.12 18.432-1.024l41.984-58.368c5.12-7.168 9.216-18.432 9.216-25.6zM686.080 632.32c-3.072 0-7.168 0-10.24 0s-7.168 0-10.24 0c-97.28-5.12-174.080-86.016-174.080-184.32s76.8-179.2 174.080-184.32c3.072 0 7.168 0 10.24 0s7.168 0 10.24 0c97.28 5.12 174.080 86.016 174.080 184.32s-76.8 179.2-174.080 184.32zM686.080 284.16c-3.072 0-7.168 0-10.24 0s-7.168 0-10.24 0c-86.016 5.12-153.6 76.8-153.6 163.84s67.584 158.72 153.6 163.84c3.072 0 7.168 0 10.24 0s7.168 0 10.24 0c86.016-5.12 153.6-76.8 153.6-163.84s-67.584-158.72-153.6-163.84zM695.296 511.488c0-9.049-7.335-16.384-16.384-16.384s-16.384 7.335-16.384 16.384c0 9.049 7.335 16.384 16.384 16.384s16.384-7.335 16.384-16.384z" />
<glyph unicode="&#xe90b;" glyph-name="custom" d="M1026.048 495.104l-54.272 55.296c-5.12 5.12-5.12 13.312 0 18.432v0c5.12 5.12 13.312 5.12 18.432 0l55.296-55.296c5.12-5.12 5.12-13.312 0-18.432v0c-6.144-5.12-13.312-5.12-19.456 0zM1044.48 495.104l-55.296-55.296c-5.12-5.12-13.312-5.12-18.432 0v0c-5.12 5.12-5.12 13.312 0 18.432l55.296 55.296c5.12 5.12 13.312 5.12 18.432 0v0c5.12-5.12 5.12-13.312 0-18.432zM-2.048 513.536l54.272-55.296c5.12-5.12 5.12-13.312 0-18.432v0c-5.12-5.12-13.312-5.12-18.432 0l-54.272 55.296c-5.12 5.12-5.12 13.312 0 18.432v0c5.12 5.12 12.288 5.12 18.432 0zM-20.48 513.536l55.296 55.296c5.12 5.12 13.312 5.12 18.432 0v0c5.12-5.12 5.12-13.312 0-18.432l-55.296-55.296c-5.12-5.12-13.312-5.12-18.432 0v0c-5.12 5.12-5.12 13.312 0 18.432zM355.328 546.304l-166.912-167.936c-5.12-5.12-13.312-5.12-18.432 0v0c-5.12 5.12-5.12 13.312 0 18.432l165.888 167.936c5.12 5.12 13.312 5.12 18.432 0v0c6.144-5.12 6.144-14.336 1.024-18.432zM355.328 564.736l165.888-165.888c5.12-5.12 5.12-13.312 0-18.432v0c-5.12-5.12-13.312-5.12-18.432 0l-165.888 165.888c-5.12 5.12-5.12 13.312 0 18.432v0c5.12 5.12 12.288 5.12 18.432 0zM623.616 611.84l-166.912-166.912c-5.12-5.12-13.312-5.12-18.432 0v0c-5.12 5.12-5.12 13.312 0 18.432l165.888 165.888c5.12 5.12 13.312 5.12 18.432 0v0c6.144-5.12 6.144-12.288 1.024-17.408zM623.616 630.272l234.496-234.496c5.12-5.12 5.12-13.312 0-18.432v0c-5.12-5.12-13.312-5.12-18.432 0l-234.496 234.496c-5.12 5.12-5.12 13.312 0 18.432v0c5.12 5.12 13.312 5.12 18.432 0zM1075.2 130.56h-1126.4c-22.528 0-38.912 17.408-38.912 38.912v668.672c0 22.528 17.408 38.912 38.912 38.912h1126.4c22.528 0 38.912-17.408 38.912-38.912v-667.648c0-22.528-17.408-39.936-38.912-39.936zM-51.2 851.456c-8.192 0-13.312-5.12-13.312-13.312v-667.648c0-8.192 5.12-13.312 13.312-13.312h1126.4c8.192 0 13.312 5.12 13.312 13.312v667.648c0 8.192-5.12 13.312-13.312 13.312 0 0-1126.4 0-1126.4 0zM462.848 54.784c0-7.352-5.96-13.312-13.312-13.312s-13.312 5.96-13.312 13.312c0 7.352 5.96 13.312 13.312 13.312s13.312-5.96 13.312-13.312zM553.984 54.784c0-14.704-11.92-26.624-26.624-26.624s-26.624 11.92-26.624 26.624c0 14.704 11.92 26.624 26.624 26.624s26.624-11.92 26.624-26.624zM619.52 54.784c0-7.352-5.96-13.312-13.312-13.312s-13.312 5.96-13.312 13.312c0 7.352 5.96 13.312 13.312 13.312s13.312-5.96 13.312-13.312z" />
<glyph unicode="&#xe90c;" glyph-name="flogia" d="M972.8 130.56h-921.6c-17.408 0-30.72 13.312-30.72 30.72v573.44c0 17.408 13.312 30.72 30.72 30.72h921.6c17.408 0 30.72-13.312 30.72-30.72v-573.44c0-17.408-13.312-30.72-30.72-30.72zM51.2 744.96c-6.144 0-10.24-4.096-10.24-10.24v-573.44c0-6.144 4.096-10.24 10.24-10.24h921.6c6.144 0 10.24 4.096 10.24 10.24v573.44c0 6.144-4.096 10.24-10.24 10.24h-921.6zM716.8 663.040h-102.4c-6.144 0-10.24 4.096-10.24 10.24s4.096 10.24 10.24 10.24h102.4c6.144 0 10.24-4.096 10.24-10.24s-4.096-10.24-10.24-10.24zM244.736 663.040h-102.4c-6.144 0-10.24 4.096-10.24 10.24s4.096 10.24 10.24 10.24h102.4c6.144 0 10.24-4.096 10.24-10.24s-4.096-10.24-10.24-10.24zM890.88 663.040h-102.4c-6.144 0-10.24 4.096-10.24 10.24s4.096 10.24 10.24 10.24h102.4c6.144 0 10.24-4.096 10.24-10.24s-4.096-10.24-10.24-10.24zM705.536 463.36h-435.2c-8.192 0-15.36 7.168-15.36 15.36s7.168 15.36 15.36 15.36h435.2c8.192 0 15.36-7.168 15.36-15.36s-7.168-15.36-15.36-15.36zM531.456 524.8h-266.24c-6.144 0-10.24 4.096-10.24 10.24s4.096 10.24 10.24 10.24h266.24c6.144 0 10.24-4.096 10.24-10.24s-5.12-10.24-10.24-10.24zM942.080 407.040c0-5.655-4.585-10.24-10.24-10.24s-10.24 4.585-10.24 10.24c0 5.655 4.585 10.24 10.24 10.24s10.24-4.585 10.24-10.24zM942.080 448c0-5.655-4.585-10.24-10.24-10.24s-10.24 4.585-10.24 10.24c0 5.655 4.585 10.24 10.24 10.24s10.24-4.585 10.24-10.24zM942.080 488.96c0-5.655-4.585-10.24-10.24-10.24s-10.24 4.585-10.24 10.24c0 5.655 4.585 10.24 10.24 10.24s10.24-4.585 10.24-10.24z" />
<glyph unicode="&#xe90d;" glyph-name="woostand" d="M983.040 130.56h-481.28v404.48c0 17.408 14.336 30.72 30.72 30.72h481.28v-404.48c0-16.384-14.336-30.72-30.72-30.72zM522.24 151.040h460.8c6.144 0 10.24 5.12 10.24 10.24v385.024h-460.8c-6.144 0-10.24-5.12-10.24-10.24v-385.024zM451.584 296.448l-119.808 119.808c-2.048 2.048-5.12 3.072-7.168 3.072-3.072 0-5.12-1.024-7.168-3.072l-73.728-73.728-39.936 39.936c-4.096 4.096-10.24 4.096-14.336 0l-87.040-87.040c-4.096-4.096-4.096-10.24 0-14.336s10.24-4.096 14.336 0l79.872 79.872 79.872-79.872c2.048-2.048 5.12-3.072 7.168-3.072 1.024 0 3.072 0 4.096 1.024 1.024 0 2.048 1.024 3.072 2.048 4.096 4.096 4.096 10.24 0 14.336l-32.768 32.768 66.56 66.56 112.64-112.64c2.048-2.048 5.12-3.072 7.168-3.072 3.072 0 5.12 1.024 7.168 3.072 3.072 3.072 3.072 10.24 0 14.336zM983.040 130.56h-942.080c-17.408 0-30.72 13.312-30.72 30.72v573.44c0 17.408 13.312 30.72 30.72 30.72h942.080c17.408 0 30.72-13.312 30.72-30.72v-573.44c0-17.408-13.312-30.72-30.72-30.72zM40.96 744.96c-6.144 0-10.24-4.096-10.24-10.24v-573.44c0-6.144 4.096-10.24 10.24-10.24h942.080c6.144 0 10.24 4.096 10.24 10.24v573.44c0 6.144-4.096 10.24-10.24 10.24h-942.080zM266.24 652.8h-133.12c-6.144 0-10.24 4.096-10.24 10.24v0c0 6.144 4.096 10.24 10.24 10.24h133.12c6.144 0 10.24-4.096 10.24-10.24v0c0-6.144-4.096-10.24-10.24-10.24zM890.88 652.8h-286.72c-6.144 0-10.24 4.096-10.24 10.24v0c0 6.144 4.096 10.24 10.24 10.24h286.72c6.144 0 10.24-4.096 10.24-10.24v0c0-6.144-4.096-10.24-10.24-10.24zM824.32 307.712h-215.040c-6.144 0-10.24 4.096-10.24 10.24v0c0 6.144 4.096 10.24 10.24 10.24h215.040c6.144 0 10.24-4.096 10.24-10.24v0c0-6.144-4.096-10.24-10.24-10.24zM721.92 256.512h-112.64c-6.144 0-10.24 4.096-10.24 10.24v0c0 6.144 4.096 10.24 10.24 10.24h112.64c6.144 0 10.24-4.096 10.24-10.24v0c0-6.144-4.096-10.24-10.24-10.24zM896 399.872h-276.48c-11.264 0-20.48 9.216-20.48 20.48v0c0 11.264 9.216 20.48 20.48 20.48h276.48c11.264 0 20.48-9.216 20.48-20.48v0c0-11.264-9.216-20.48-20.48-20.48z" />
<glyph unicode="&#xe90e;" glyph-name="woocommerce" d="M396.288 480.768h-261.12c-8.192 0-15.36 7.168-15.36 15.36s7.168 15.36 15.36 15.36h261.12c8.192 0 15.36-7.168 15.36-15.36s-7.168-15.36-15.36-15.36zM335.872 399.872h-204.8c-6.144 0-10.24 4.096-10.24 10.24s4.096 10.24 10.24 10.24h204.8c6.144 0 10.24-4.096 10.24-10.24s-5.12-10.24-10.24-10.24zM252.928 348.672h-122.88c-6.144 0-10.24 4.096-10.24 10.24s4.096 10.24 10.24 10.24h122.88c6.144 0 10.24-4.096 10.24-10.24s-4.096-10.24-10.24-10.24zM535.552 201.216c0-5.655-4.585-10.24-10.24-10.24s-10.24 4.585-10.24 10.24c0 5.655 4.585 10.24 10.24 10.24s10.24-4.585 10.24-10.24zM576.512 201.216c0-5.655-4.585-10.24-10.24-10.24s-10.24 4.585-10.24 10.24c0 5.655 4.585 10.24 10.24 10.24s10.24-4.585 10.24-10.24zM617.472 201.216c0-5.655-4.585-10.24-10.24-10.24s-10.24 4.585-10.24 10.24c0 5.655 4.585 10.24 10.24 10.24s10.24-4.585 10.24-10.24zM983.040 775.68h-942.080c-17.408 0-30.72-13.312-30.72-30.72v-593.92c0-17.408 13.312-30.72 30.72-30.72h942.080c17.408 0 30.72 13.312 30.72 30.72v593.92c0 17.408-13.312 30.72-30.72 30.72zM983.040 755.2c6.144 0 10.24-4.096 10.24-10.24v-349.184c-1.024 6.144-3.072 12.288-6.144 17.408l-40.96 52.224c-2.048 7.168-11.264 7.168-15.36 2.048l-91.136-90.112-47.104 47.104c-4.096 7.168-13.312 7.168-18.432 2.048l-87.040-71.68v400.384h295.936zM667.648 140.8h-626.688c-6.144 0-10.24 4.096-10.24 10.24v593.92c0 6.144 4.096 10.24 10.24 10.24h626.688v-614.4zM861.184 461.312c0-10.18-8.252-18.432-18.432-18.432s-18.432 8.252-18.432 18.432c0 10.18 8.252 18.432 18.432 18.432s18.432-8.252 18.432-18.432zM890.88 654.848h-102.4c-6.144 0-10.24 4.096-10.24 10.24s4.096 10.24 10.24 10.24h102.4c6.144 0 10.24-4.096 10.24-10.24s-4.096-10.24-10.24-10.24zM232.448 654.848h-102.4c-6.144 0-10.24 4.096-10.24 10.24s4.096 10.24 10.24 10.24h102.4c6.144 0 10.24-4.096 10.24-10.24s-5.12-10.24-10.24-10.24z" />
<glyph unicode="&#xe90f;" glyph-name="multiscroll" d="M268.288 383.488c-3.072 0-5.12 2.048-5.12 5.12v153.6c0 3.072 2.048 5.12 5.12 5.12s5.12-2.048 5.12-5.12v-153.6c0-3.072-2.048-5.12-5.12-5.12zM268.288 382.464c-1.024 0-3.072 0-4.096 1.024l-25.6 25.6c-2.048 2.048-2.048 5.12 0 7.168s5.12 2.048 7.168 0l25.6-25.6c2.048-2.048 2.048-5.12 0-7.168 0 0-2.048-1.024-3.072-1.024zM268.288 382.464c-1.024 0-3.072 0-4.096 1.024-2.048 2.048-2.048 5.12 0 7.168l25.6 25.6c2.048 2.048 5.12 2.048 7.168 0s2.048-5.12 0-7.168l-25.6-25.6c0 0-2.048-1.024-3.072-1.024zM759.808 546.304c3.072 0 5.12-2.048 5.12-5.12v-153.6c0-3.072-2.048-5.12-5.12-5.12s-5.12 2.048-5.12 5.12v153.6c0 3.072 2.048 5.12 5.12 5.12zM759.808 547.328c1.024 0 3.072 0 4.096-1.024l25.6-25.6c2.048-2.048 2.048-5.12 0-7.168s-5.12-2.048-7.168 0l-25.6 25.6c-2.048 2.048-2.048 5.12 0 7.168 0 0 2.048 1.024 3.072 1.024zM759.808 547.328c1.024 0 3.072 0 4.096-1.024 2.048-2.048 2.048-5.12 0-7.168l-25.6-25.6c-2.048-2.048-5.12-2.048-7.168 0s-2.048 5.12 0 7.168l25.6 25.6c0 0 2.048 1.024 3.072 1.024zM975.872 765.44h-921.6c-17.408 0-30.72-13.312-30.72-30.72v-573.44c0-17.408 13.312-30.72 30.72-30.72h921.6c17.408 0 30.72 13.312 30.72 30.72v573.44c0 17.408-13.312 30.72-30.72 30.72zM44.032 161.28v573.44c0 6.144 4.096 10.24 10.24 10.24h450.56v-593.92h-450.56c-6.144 0-10.24 4.096-10.24 10.24zM986.112 161.28c0-6.144-4.096-10.24-10.24-10.24h-450.56v593.92h450.56c6.144 0 10.24-4.096 10.24-10.24v-573.44z" />
<glyph unicode="&#xe910;" glyph-name="event-calendar" d="M972.8 130.56h-921.6c-17.408 0-30.72 13.312-30.72 30.72v573.44c0 17.408 13.312 30.72 30.72 30.72h921.6c17.408 0 30.72-13.312 30.72-30.72v-573.44c0-17.408-13.312-30.72-30.72-30.72zM51.2 744.96c-6.144 0-10.24-4.096-10.24-10.24v-573.44c0-6.144 4.096-10.24 10.24-10.24h921.6c6.144 0 10.24 4.096 10.24 10.24v573.44c0 6.144-4.096 10.24-10.24 10.24h-921.6zM832.512 221.696c0-5.655-4.585-10.24-10.24-10.24s-10.24 4.585-10.24 10.24c0 5.655 4.585 10.24 10.24 10.24s10.24-4.585 10.24-10.24zM873.472 221.696c0-5.655-4.585-10.24-10.24-10.24s-10.24 4.585-10.24 10.24c0 5.655 4.585 10.24 10.24 10.24s10.24-4.585 10.24-10.24zM914.432 221.696c0-5.655-4.585-10.24-10.24-10.24s-10.24 4.585-10.24 10.24c0 5.655 4.585 10.24 10.24 10.24s10.24-4.585 10.24-10.24zM443.392 491.008h-261.12c-8.192 0-15.36 7.168-15.36 15.36s7.168 15.36 15.36 15.36h261.12c8.192 0 15.36-7.168 15.36-15.36s-7.168-15.36-15.36-15.36zM567.296 302.592l92.16 293.888 93.184-168.96 79.872 88.064 80.896-212.992zM166.912 569.856h91.136v-23.552h-91.136v23.552zM262.144 436.736c0-1.024 0-1.024 0 0l-92.16-1.024c-1.024 0-1.024 0-1.024 1.024v24.576c0 1.024 0 1.024 1.024 1.024h91.136c1.024 0 1.024 0 1.024-1.024v-24.576zM415.744 443.904c0 0 0-1.024 0 0l-120.832-1.024c-1.024 0-1.024 0-1.024 1.024v10.24c0 1.024 0 1.024 1.024 1.024h119.808c1.024 0 1.024 0 1.024-1.024v-10.24zM219.136 357.888c0-1.024-1.024-2.048-2.048-2.048h-43.008c-1.024 0-2.048 1.024-2.048 2.048v43.008c0 1.024 1.024 2.048 2.048 2.048h43.008c1.024 0 2.048-1.024 2.048-2.048v-43.008zM284.672 357.888c0-1.024-1.024-2.048-2.048-2.048h-43.008c-1.024 0-2.048 1.024-2.048 2.048v43.008c0 1.024 1.024 2.048 2.048 2.048h43.008c1.024 0 2.048-1.024 2.048-2.048v-43.008zM350.208 357.888c0-1.024-1.024-2.048-2.048-2.048h-43.008c-1.024 0-2.048 1.024-2.048 2.048v43.008c0 1.024 1.024 2.048 2.048 2.048h43.008c1.024 0 2.048-1.024 2.048-2.048v-43.008zM415.744 357.888c0-1.024-1.024-2.048-2.048-2.048h-43.008c-1.024 0-2.048 1.024-2.048 2.048v43.008c0 1.024 1.024 2.048 2.048 2.048h43.008c1.024 0 2.048-1.024 2.048-2.048v-43.008z" />
<glyph unicode="&#xe911;" glyph-name="fluent" d="M455.68 688.64h-102.4c-6.144 0-10.24 4.096-10.24 10.24s4.096 10.24 10.24 10.24h102.4c6.144 0 10.24-4.096 10.24-10.24s-4.096-10.24-10.24-10.24zM935.936 688.64h-102.4c-6.144 0-10.24 4.096-10.24 10.24s4.096 10.24 10.24 10.24h102.4c6.144 0 10.24-4.096 10.24-10.24s-4.096-10.24-10.24-10.24zM205.824 652.8h-102.4c-6.144 0-10.24 4.096-10.24 10.24s4.096 10.24 10.24 10.24h102.4c6.144 0 10.24-4.096 10.24-10.24s-5.12-10.24-10.24-10.24zM205.824 565.76h-102.4c-6.144 0-10.24 4.096-10.24 10.24s4.096 10.24 10.24 10.24h102.4c6.144 0 10.24-4.096 10.24-10.24s-5.12-10.24-10.24-10.24zM205.824 478.72h-102.4c-6.144 0-10.24 4.096-10.24 10.24s4.096 10.24 10.24 10.24h102.4c6.144 0 10.24-4.096 10.24-10.24s-5.12-10.24-10.24-10.24zM205.824 391.68h-102.4c-6.144 0-10.24 4.096-10.24 10.24s4.096 10.24 10.24 10.24h102.4c6.144 0 10.24-4.096 10.24-10.24s-5.12-10.24-10.24-10.24zM205.824 304.64h-102.4c-6.144 0-10.24 4.096-10.24 10.24s4.096 10.24 10.24 10.24h102.4c6.144 0 10.24-4.096 10.24-10.24s-5.12-10.24-10.24-10.24zM205.824 218.624h-102.4c-6.144 0-10.24 4.096-10.24 10.24s4.096 10.24 10.24 10.24h102.4c6.144 0 10.24-4.096 10.24-10.24s-5.12-10.24-10.24-10.24zM972.8 765.44h-921.6c-17.408 0-30.72-13.312-30.72-30.72v-573.44c0-17.408 13.312-30.72 30.72-30.72h921.6c17.408 0 30.72 13.312 30.72 30.72v573.44c0 17.408-13.312 30.72-30.72 30.72zM40.96 161.28v573.44c0 6.144 4.096 10.24 10.24 10.24h229.376v-591.872c0-1.024 0-2.048 0-2.048h-229.376c-6.144 0-10.24 4.096-10.24 10.24zM983.040 161.28c0-6.144-4.096-10.24-10.24-10.24h-671.744c0 1.024 0 2.048 0 2.048v591.872h671.744c6.144 0 10.24-4.096 10.24-10.24v-573.44zM398.336 510.464c0-5.655-4.585-10.24-10.24-10.24s-10.24 4.585-10.24 10.24c0 5.655 4.585 10.24 10.24 10.24s10.24-4.585 10.24-10.24zM439.296 510.464c0-5.655-4.585-10.24-10.24-10.24s-10.24 4.585-10.24 10.24c0 5.655 4.585 10.24 10.24 10.24s10.24-4.585 10.24-10.24zM480.256 510.464c0-5.655-4.585-10.24-10.24-10.24s-10.24 4.585-10.24 10.24c0 5.655 4.585 10.24 10.24 10.24s10.24-4.585 10.24-10.24zM695.296 455.168h-307.2c-6.144 0-10.24-4.096-10.24-10.24s4.096-10.24 10.24-10.24h307.2c5.12 0 10.24 4.096 10.24 10.24s-4.096 10.24-10.24 10.24zM612.352 403.968h-225.28c-6.144 0-10.24-4.096-10.24-10.24s4.096-10.24 10.24-10.24h225.28c5.12 0 10.24 4.096 10.24 10.24s-4.096 10.24-10.24 10.24zM879.622 219.38l-18.102-18.102-2.896 2.896 18.102 18.102 2.896-2.896zM876.81 222.641l18.102-18.102-2.896-2.896-18.102 18.102 2.896 2.896zM910.237 204.892l18.102 18.102 2.896-2.896-18.102-18.102-2.896 2.896zM913.244 201.201l-18.102 18.102 2.896 2.896 18.102-18.102-2.896-2.896z" />
<glyph unicode="&#xe912;" glyph-name="dragon" d="M997.376 779.776h-991.232c-11.264 0-27.648-16.384-27.648-37.888v-598.016c0-21.504 16.384-37.888 27.648-37.888h991.232c31.744 0 48.128 16.384 48.128 38.912v596.992c0 21.504-16.384 37.888-48.128 37.888zM4.096 144.896v596.992c0 7.168 5.12 12.288 12.288 12.288 0 0 345.088 0 658.432 0 55.296-102.4 84.992-188.416 84.992-306.176s-29.696-212.992-84.992-315.392h-658.432c-7.168 0-12.288 5.12-12.288 12.288zM1019.904 144.896c0-7.168-5.12-12.288-12.288-12.288h-302.080c53.248 103.424 79.872 198.656 79.872 315.392 0 117.76-26.624 202.752-79.872 306.176 96.256 0 301.056 0 301.056 0 7.168 0 12.288-5.12 12.288-12.288v-596.992h1.024zM677.888 446.976h-591.872c-7.168 0-12.288 5.12-12.288 12.288v0c0 7.168 5.12 12.288 12.288 12.288h591.872c7.168 0 12.288-5.12 12.288-12.288v0c1.024-6.144-5.12-12.288-12.288-12.288zM433.152 380.416h-347.136c-7.168 0-12.288 5.12-12.288 12.288v0c0 7.168 5.12 12.288 12.288 12.288h347.136c7.168 0 12.288-5.12 12.288-12.288v0c0-6.144-6.144-12.288-12.288-12.288zM272.384 623.104h-191.488c-4.096 0-7.168 3.072-7.168 7.168v0c0 4.096 3.072 7.168 7.168 7.168h191.488c4.096 0 7.168-3.072 7.168-7.168v0c-1.024-3.072-4.096-7.168-7.168-7.168zM541.696 536.064h-442.368c-14.336 0-25.6 11.264-25.6 25.6v0c0 14.336 11.264 25.6 25.6 25.6h442.368c14.336 0 25.6-11.264 25.6-25.6v0c0-14.336-11.264-25.6-25.6-25.6zM227.328 325.12h-119.808c-9.216 0-17.408-4.096-23.552-10.24s-10.24-14.336-10.24-23.552c0-18.432 15.36-32.768 32.768-32.768h119.808c9.216 0 17.408 4.096 23.552 10.24s10.24 14.336 10.24 23.552c0 18.432-15.36 32.768-32.768 32.768zM209.92 287.232h-87.040c-3.072 0-5.12 2.048-5.12 5.12s2.048 5.12 5.12 5.12h87.040c3.072 0 5.12-2.048 5.12-5.12s-2.048-5.12-5.12-5.12zM966.656 437.76h-113.664c-6.144 0-10.24 4.096-10.24 10.24v0c0 6.144 4.096 10.24 10.24 10.24h113.664c6.144 0 10.24-4.096 10.24-10.24v0c0-6.144-4.096-10.24-10.24-10.24zM966.656 366.080h-81.92c-6.144 0-10.24 4.096-10.24 10.24v0c0 6.144 4.096 10.24 10.24 10.24h81.92c6.144 0 10.24-4.096 10.24-10.24v0c0-6.144-4.096-10.24-10.24-10.24zM966.656 509.44h-81.92c-6.144 0-10.24 4.096-10.24 10.24v0c0 6.144 4.096 10.24 10.24 10.24h81.92c6.144 0 10.24-4.096 10.24-10.24v0c0-6.144-4.096-10.24-10.24-10.24z" />
<glyph unicode="&#xe913;" glyph-name="pagepiling" d="M983.040 156.16h-942.080c-17.408 0-30.72 13.312-30.72 30.72v522.24c0 17.408 13.312 30.72 30.72 30.72h942.080c17.408 0 30.72-13.312 30.72-30.72v-522.24c0-17.408-13.312-30.72-30.72-30.72zM40.96 719.36c-6.144 0-10.24-4.096-10.24-10.24v-522.24c0-6.144 4.096-10.24 10.24-10.24h942.080c6.144 0 10.24 4.096 10.24 10.24v522.24c0 6.144-4.096 10.24-10.24 10.24h-942.080zM412.672 455.168v0c0-8.192-7.168-15.36-15.36-15.36h-227.328c-8.192 0-15.36 7.168-15.36 15.36v0c0 8.192 7.168 15.36 15.36 15.36h227.328c9.216 0 15.36-6.144 15.36-15.36zM216.064 312.832v0c0-17.408-13.312-30.72-30.72-30.72v0c-17.408 0-30.72 13.312-30.72 30.72v0c0 17.408 13.312 30.72 30.72 30.72v0c17.408-1.024 30.72-14.336 30.72-30.72zM543.744 398.848h-384c-3.072 0-5.12 2.048-5.12 5.12v0c0 3.072 2.048 5.12 5.12 5.12h384c3.072 0 5.12-2.048 5.12-5.12v0c0-2.048-2.048-5.12-5.12-5.12zM281.6 491.008h-121.856c-3.072 0-5.12 2.048-5.12 5.12v0c0 3.072 2.048 5.12 5.12 5.12h120.832c3.072 0 5.12-2.048 5.12-5.12v0c1.024-2.048-1.024-5.12-4.096-5.12zM477.184 368.128h-317.44c-3.072 0-5.12 2.048-5.12 5.12v0c0 3.072 2.048 5.12 5.12 5.12h317.44c3.072 0 5.12-2.048 5.12-5.12v0c0-2.048-2.048-5.12-5.12-5.12zM195.584 613.888c-22.528 0-40.96-18.432-40.96-40.96s18.432-40.96 40.96-40.96c22.528 0 40.96 18.432 40.96 40.96s-18.432 40.96-40.96 40.96zM207.872 570.88l-18.432-10.24c-1.024-1.024-3.072 0-3.072 2.048v21.504c0 2.048 2.048 3.072 3.072 2.048l18.432-10.24c2.048-1.024 2.048-3.072 0-5.12zM182.272 300.544c0 0-1.024 0-1.024 0-1.024 1.024-1.024 2.048 0 2.048l9.216 8.192-9.216 9.216c-1.024 1.024-1.024 2.048 0 2.048s2.048 1.024 2.048 0l11.264-11.264-11.264-10.24c0 1.024-1.024 0-1.024 0zM89.088 476.672v0c-3.072 0-5.12 2.048-5.12 5.12v40.96c0 3.072 2.048 5.12 5.12 5.12v0c3.072 0 5.12-2.048 5.12-5.12v-40.96c0-3.072-3.072-5.12-5.12-5.12zM89.088 415.232v0c-3.072 0-5.12 2.048-5.12 5.12v40.96c0 3.072 2.048 5.12 5.12 5.12v0c3.072 0 5.12-2.048 5.12-5.12v-40.96c0-3.072-3.072-5.12-5.12-5.12zM89.088 353.792v0c-3.072 0-5.12 2.048-5.12 5.12v40.96c0 3.072 2.048 5.12 5.12 5.12v0c3.072 0 5.12-2.048 5.12-5.12v-40.96c0-3.072-3.072-5.12-5.12-5.12zM802.816 383.488c-3.072 0-5.12 1.024-7.168 3.072l-73.728 73.728c-4.096 4.096-10.24 4.096-14.336 0l-73.728-73.728c-4.096-4.096-10.24-4.096-14.336 0s-4.096 10.24 0 14.336l73.728 73.728c12.288 12.288 31.744 12.288 43.008 0l73.728-73.728c4.096-4.096 4.096-10.24 0-14.336-2.048-2.048-4.096-3.072-7.168-3.072zM949.248 380.416c-3.072 0-5.12 1.024-7.168 3.072l-105.472 105.472c-4.096 4.096-10.24 4.096-14.336 0l-57.344-57.344c-4.096-4.096-10.24-4.096-14.336 0s-4.096 10.24 0 14.336l57.344 57.344c12.288 12.288 30.72 12.288 43.008 0l105.472-105.472c4.096-4.096 4.096-10.24 0-14.336-2.048-2.048-4.096-3.072-7.168-3.072z" />
<glyph unicode="&#xe914;" glyph-name="sequester" d="M969.728 193.024h-915.456c-17.408 0-30.72 13.312-30.72 30.72v448.512c0 17.408 13.312 30.72 30.72 30.72h915.456c17.408 0 30.72-13.312 30.72-30.72v-449.536c0-16.384-13.312-29.696-30.72-29.696zM54.272 682.496c-6.144 0-10.24-4.096-10.24-10.24v-448.512c0-6.144 4.096-10.24 10.24-10.24h915.456c5.12 0 10.24 3.072 10.24 9.216v449.536c0 6.144-4.096 10.24-10.24 10.24h-915.456zM924.672 241.152c-12.288 0-22.528 10.24-22.528 22.528s10.24 22.528 22.528 22.528 22.528-10.24 22.528-22.528-10.24-22.528-22.528-22.528zM924.672 282.112c-10.24 0-18.432-8.192-18.432-18.432s8.192-18.432 18.432-18.432 18.432 8.192 18.432 18.432-8.192 18.432-18.432 18.432zM924.672 296.448c-12.288 0-22.528 10.24-22.528 22.528s10.24 22.528 22.528 22.528 22.528-10.24 22.528-22.528-10.24-22.528-22.528-22.528zM924.672 337.408c-10.24 0-18.432-8.192-18.432-18.432s8.192-18.432 18.432-18.432 18.432 8.192 18.432 18.432-8.192 18.432-18.432 18.432zM921.6 309.76c0 0-1.024 0-1.024 0-1.024 1.024-1.024 2.048 0 2.048l6.144 6.144-7.168 7.168c-1.024 1.024-1.024 2.048 0 2.048s2.048 1.024 2.048 0l9.216-9.216-8.192-8.192c0 1.024-1.024 0-1.024 0zM928.768 254.464c0 0-1.024 0-1.024 0l-8.192 9.216 8.192 8.192c1.024 1.024 2.048 1.024 2.048 0s1.024-2.048 0-2.048l-6.144-6.144 6.144-6.144c1.024-1.024 1.024-2.048 0-2.048 0 0-1.024-1.024-1.024-1.024zM934.912 448c0-5.655-4.585-10.24-10.24-10.24s-10.24 4.585-10.24 10.24c0 5.655 4.585 10.24 10.24 10.24s10.24-4.585 10.24-10.24zM929.792 473.6c0-2.828-2.292-5.12-5.12-5.12s-5.12 2.292-5.12 5.12c0 2.828 2.292 5.12 5.12 5.12s5.12-2.292 5.12-5.12zM929.792 422.4c0-2.828-2.292-5.12-5.12-5.12s-5.12 2.292-5.12 5.12c0 2.828 2.292 5.12 5.12 5.12s5.12-2.292 5.12-5.12zM847.872 692.736h10.24v-489.472h-10.24v489.472zM506.88 692.736h10.24v-489.472h-10.24v489.472zM516.096 355.84l-7.168 7.168 43.008 43.008c5.12 5.12 13.312 9.216 20.48 8.192 7.168 0 13.312-3.072 18.432-8.192l24.576-24.576c3.072-3.072 8.192-5.12 13.312-5.12 4.096 0 8.192 2.048 11.264 5.12l97.28 97.28c5.12 5.12 13.312 8.192 20.48 8.192s13.312-3.072 18.432-8.192l80.896-80.896-7.168-7.168-81.92 80.896c-3.072 3.072-7.168 5.12-11.264 5.12-5.12 0-9.216-2.048-13.312-5.12l-97.28-97.28c-4.096-5.12-11.264-8.192-18.432-8.192s-15.36 3.072-20.48 8.192l-24.576 24.576c-3.072 3.072-7.168 5.12-11.264 5.12s-9.216-2.048-13.312-5.12l-41.984-43.008zM632.832 458.24c-22.528 0-39.936 17.408-39.936 39.936s17.408 39.936 39.936 39.936 39.936-17.408 39.936-39.936-17.408-39.936-39.936-39.936zM632.832 527.872c-16.384 0-29.696-13.312-29.696-29.696s13.312-29.696 29.696-29.696c16.384 0 29.696 13.312 29.696 29.696s-13.312 29.696-29.696 29.696zM201.728 507.392h-119.808c-3.072 0-5.12 2.048-5.12 5.12s2.048 5.12 5.12 5.12h119.808c3.072 0 5.12-2.048 5.12-5.12s-2.048-5.12-5.12-5.12zM324.608 460.288h-242.688c-6.144 0-10.24 4.096-10.24 10.24s4.096 10.24 10.24 10.24h242.688c6.144 0 10.24-4.096 10.24-10.24s-4.096-10.24-10.24-10.24zM420.864 413.184h-338.944c-3.072 0-5.12 2.048-5.12 5.12s2.048 5.12 5.12 5.12h338.944c3.072 0 5.12-2.048 5.12-5.12s-2.048-5.12-5.12-5.12zM361.472 378.368h-279.552c-3.072 0-5.12 2.048-5.12 5.12s2.048 5.12 5.12 5.12h279.552c3.072 0 5.12-2.048 5.12-5.12s-2.048-5.12-5.12-5.12z" />
<glyph unicode="&#xe915;" glyph-name="prime-slider" horiz-adv-x="892" d="M184.055 341.828h-156.115c-15.367 0-27.94 12.573-27.94 27.94v562.292c0 15.367 12.573 27.94 27.94 27.94h156.115c15.367 0 27.94-12.573 27.94-27.94v-562.292c0-15.367-12.573-27.94-27.94-27.94zM891.984 525.883v-156.115c0-15.367-12.573-27.94-27.94-27.94h-836.104c-15.367 0-27.94 12.573-27.94 27.94v156.115c0 15.367 12.573 27.94 27.94 27.94h836.453c15.367 0 27.591-12.224 27.591-27.94zM596.518 120.055v-156.115c0-15.367-12.573-27.94-27.94-27.94h-539.94c-15.367 0-27.94 12.573-27.94 27.94v156.115c0 15.367 12.573 27.94 27.94 27.94h539.94c15.716 0 27.94-12.573 27.94-27.94zM891.984 932.060v-156.115c0-15.367-12.573-27.94-27.94-27.94h-836.104c-15.367 0-27.94 12.573-27.94 27.94v156.115c0 15.367 12.573 27.94 27.94 27.94h836.453c15.367 0 27.591-12.224 27.591-27.94zM864.044-64h-156.115c-15.367 0-27.94 12.573-27.94 27.94v562.292c0 15.367 12.573 27.94 27.94 27.94h156.115c15.367 0 27.94-12.573 27.94-27.94v-562.292c0-15.716-12.224-27.94-27.94-27.94z" />
<glyph unicode="&#xe916;" glyph-name="mount" d="M972.8 130.56h-921.6c-17.408 0-30.72 13.312-30.72 30.72v573.44c0 17.408 13.312 30.72 30.72 30.72h921.6c17.408 0 30.72-13.312 30.72-30.72v-573.44c0-17.408-13.312-30.72-30.72-30.72zM51.2 744.96c-6.144 0-10.24-4.096-10.24-10.24v-573.44c0-6.144 4.096-10.24 10.24-10.24h921.6c6.144 0 10.24 4.096 10.24 10.24v573.44c0 6.144-4.096 10.24-10.24 10.24h-921.6zM403.456 483.84v0c0-8.192-7.168-15.36-15.36-15.36h-227.328c-8.192 0-15.36 7.168-15.36 15.36v0c0 8.192 7.168 15.36 15.36 15.36h227.328c9.216 0 15.36-6.144 15.36-15.36zM534.528 427.52h-384c-3.072 0-5.12 2.048-5.12 5.12v0c0 3.072 2.048 5.12 5.12 5.12h384c3.072 0 5.12-2.048 5.12-5.12v0c0-2.048-2.048-5.12-5.12-5.12zM437.248 396.8h-286.72c-3.072 0-5.12 2.048-5.12 5.12v0c0 3.072 2.048 5.12 5.12 5.12h286.72c3.072 0 5.12-2.048 5.12-5.12v0c0-2.048-2.048-5.12-5.12-5.12zM179.2 215.552h-1.024c-1.024 1.024-1.024 2.048 0 2.048l9.216 8.192-9.216 9.216c-1.024 1.024-1.024 2.048 0 2.048s2.048 1.024 2.048 0l11.264-11.264-11.264-10.24c0 1.024-1.024 0-1.024 0zM155.648 237.056h1.024c1.024-1.024 1.024-2.048 0-2.048l-9.216-8.192 9.216-9.216c1.024-1.024 1.024-2.048 0-2.048s-2.048-1.024-2.048 0l-11.264 11.264 11.264 10.24c0-1.024 1.024 0 1.024 0zM384 226.816v0c0 3.072 2.048 5.12 5.12 5.12h245.76c3.072 0 5.12-2.048 5.12-5.12v0c0-3.072-2.048-5.12-5.12-5.12h-245.76c-3.072 0-5.12 3.072-5.12 5.12zM839.68 226.816v0c0 3.072 2.048 5.12 5.12 5.12h40.96c3.072 0 5.12-2.048 5.12-5.12v0c0-3.072-2.048-5.12-5.12-5.12h-40.96c-3.072 0-5.12 3.072-5.12 5.12zM793.6 384.512c-3.072 0-5.12 1.024-7.168 3.072l-73.728 73.728c-4.096 4.096-10.24 4.096-14.336 0l-73.728-73.728c-4.096-4.096-10.24-4.096-14.336 0s-4.096 10.24 0 14.336l73.728 73.728c12.288 12.288 31.744 12.288 43.008 0l73.728-73.728c4.096-4.096 4.096-10.24 0-14.336-2.048-2.048-4.096-3.072-7.168-3.072zM940.032 381.44c-3.072 0-5.12 1.024-7.168 3.072l-105.472 105.472c-4.096 4.096-10.24 4.096-14.336 0l-57.344-57.344c-4.096-4.096-10.24-4.096-14.336 0s-4.096 10.24 0 14.336l57.344 57.344c12.288 12.288 30.72 12.288 43.008 0l105.472-105.472c4.096-4.096 4.096-10.24 0-14.336-2.048-2.048-4.096-3.072-7.168-3.072z" />
<glyph unicode="&#xe917;" glyph-name="flexure" d="M972.8 130.56h-921.6c-17.408 0-30.72 13.312-30.72 30.72v573.44c0 17.408 13.312 30.72 30.72 30.72h921.6c17.408 0 30.72-13.312 30.72-30.72v-573.44c0-17.408-13.312-30.72-30.72-30.72zM51.2 744.96c-6.144 0-10.24-4.096-10.24-10.24v-573.44c0-6.144 4.096-10.24 10.24-10.24h921.6c6.144 0 10.24 4.096 10.24 10.24v573.44c0 6.144-4.096 10.24-10.24 10.24h-921.6zM745.472 451.072h-1.024v2.048zM276.48 451.072v-40.96l-16.384 23.552zM929.792 217.6h-837.632c-17.408 0-26.624 21.504-13.312 34.816l161.792 162.816 7.168-10.24h55.296v46.080h18.432v17.408c0 0 0 0 0 0l79.872-79.872c8.192-8.192 20.48-8.192 28.672 0l27.648 27.648v-9.216h70.656l11.264 15.36 11.264-15.36h27.648l-25.6 34.816 8.192 11.264h18.432v-46.080h24.576v46.080h18.432v21.504h-71.68l-10.24-14.336-10.24 14.336h-13.312l88.064 88.064c8.192 8.192 20.48 8.192 28.672 0l86.016-87.040h-33.792v-24.576h18.432v-46.080h26.624v46.080h12.288v-46.080h47.104l153.6-152.576c13.312-13.312 4.096-34.816-14.336-34.816zM484.352 582.144c0-38.457-31.175-69.632-69.632-69.632s-69.632 31.175-69.632 69.632c0 38.457 31.175 69.632 69.632 69.632s69.632-31.175 69.632-69.632zM424.96 458.24h-18.432v11.264h50.176v-11.264h-18.432v-46.080h-13.312c0 0 0 46.080 0 46.080zM507.904 422.4v-10.24h-44.032v57.344h43.008v-10.24h-29.696v-12.288h26.624v-10.24h-26.624v-13.312l30.72-1.024zM553.984 412.16l-14.336 19.456-13.312-19.456h-15.36l21.504 28.672-20.48 28.672h15.36l13.312-18.432 13.312 18.432h14.336l-20.48-27.648 21.504-29.696c0 0-15.36 0-15.36 0zM585.728 458.24h-18.432v11.264h50.176v-11.264h-18.432v-46.080h-13.312c0 0 0 46.080 0 46.080zM727.040 410.112h-16.384v46.080h-18.432v14.336h53.248v-14.336h-18.432v-46.080zM713.728 414.208h10.24v46.080h18.432v8.192h-47.104v-8.192h18.432v-46.080zM796.672 410.112h-47.104v60.416h46.080v-12.288h-29.696v-10.24h26.624v-13.312h-26.624v-10.24h30.72v-14.336zM752.64 414.208h40.96v8.192h-30.72v16.384h25.6v7.168h-26.624v15.36h29.696v7.168h-39.936v-54.272zM859.136 410.112h-19.456l-13.312 18.432-12.288-18.432h-19.456l22.528 30.72-21.504 29.696h19.456l12.288-17.408 12.288 17.408h18.432l-21.504-29.696 22.528-30.72zM841.728 414.208h11.264l-20.48 28.672 19.456 25.6h-10.24l-14.336-20.48-14.336 20.48h-11.264l19.456-27.648-20.48-26.624h11.264l14.336 20.48 15.36-20.48zM887.808 410.112h-17.408v46.080h-18.432v14.336h53.248v-14.336h-18.432v-46.080zM874.496 414.208h10.24v46.080h18.432v8.192h-47.104v-8.192h18.432v-46.080zM137.216 410.112h-16.384v46.080h-18.432v14.336h53.248v-14.336h-18.432v-46.080zM122.88 414.208h10.24v46.080h18.432v8.192h-47.104v-8.192h18.432v-46.080zM205.824 410.112h-47.104v60.416h46.080v-12.288h-29.696v-10.24h26.624v-13.312h-26.624v-10.24h30.72v-14.336zM162.816 414.208h40.96v8.192h-30.72v16.384h26.624v7.168h-26.624v15.36h29.696v7.168h-39.936v-54.272zM270.336 410.112h-19.456l-13.312 18.432-12.288-18.432h-19.456l22.528 30.72-21.504 29.696h19.456l12.288-17.408 12.288 17.408h18.432l-21.504-29.696 22.528-30.72zM252.928 414.208h11.264l-20.48 28.672 19.456 25.6h-10.24l-14.336-20.48-14.336 20.48h-11.264l19.456-27.648-20.48-26.624h11.264l14.336 20.48 15.36-20.48zM297.984 410.112h-16.384v46.080h-18.432v14.336h53.248v-14.336h-18.432v-46.080zM285.696 414.208h10.24v46.080h18.432v8.192h-48.128v-8.192h18.432v-46.080z" />
<glyph unicode="&#xe918;" glyph-name="monster" d="M972.8 130.56h-921.6c-17.408 0-30.72 13.312-30.72 30.72v573.44c0 17.408 13.312 30.72 30.72 30.72h921.6c17.408 0 30.72-13.312 30.72-30.72v-573.44c0-17.408-13.312-30.72-30.72-30.72zM51.2 744.96c-6.144 0-10.24-4.096-10.24-10.24v-573.44c0-6.144 4.096-10.24 10.24-10.24h921.6c6.144 0 10.24 4.096 10.24 10.24v573.44c0 6.144-4.096 10.24-10.24 10.24h-921.6zM523.264 420.352c-2.048 0-4.096 1.024-5.12 2.048l-56.32 56.32c-3.072 3.072-8.192 3.072-11.264 0l-56.32-56.32c-3.072-3.072-8.192-3.072-11.264 0s-3.072 8.192 0 11.264l56.32 56.32c9.216 9.216 24.576 9.216 32.768 0l56.32-56.32c3.072-3.072 3.072-8.192 0-11.264-1.024-1.024-3.072-2.048-5.12-2.048zM635.904 418.304c-2.048 0-4.096 1.024-5.12 2.048l-80.896 80.896c-3.072 3.072-8.192 3.072-11.264 0l-44.032-44.032c-3.072-3.072-8.192-3.072-11.264 0s-3.072 8.192 0 11.264l44.032 44.032c9.216 9.216 23.552 9.216 32.768 0l80.896-80.896c3.072-3.072 3.072-8.192 0-11.264-1.024-2.048-3.072-2.048-5.12-2.048zM847.872 334.336h-159.744v226.304h159.744v-226.304zM698.368 344.576h139.264v205.824h-139.264v-205.824zM335.872 334.336h-159.744v226.304h159.744v-226.304zM186.368 344.576h139.264v205.824h-139.264v-205.824zM957.44 364.032h-119.808v167.936h119.808v-167.936zM847.872 374.272h99.328v147.456h-99.328v-147.456zM186.368 364.032h-119.808v167.936h119.808v-167.936zM76.8 374.272h99.328v147.456h-99.328v-147.456zM567.296 252.416h-110.592c-1.024 0-3.072 1.024-3.072 3.072v0c0 1.024 1.024 3.072 3.072 3.072h111.616c1.024 0 3.072-1.024 3.072-3.072v0c-1.024-2.048-2.048-3.072-4.096-3.072zM528.384 252.416h-33.792c-1.024 0-3.072 1.024-3.072 3.072v0c0 1.024 1.024 3.072 3.072 3.072h33.792c1.024 0 3.072-1.024 3.072-3.072v0c0-2.048-1.024-3.072-3.072-3.072zM891.904 394.752h-49.152c-3.072 0-5.12 2.048-5.12 5.12s2.048 5.12 5.12 5.12h49.152c3.072 0 5.12-2.048 5.12-5.12s-2.048-5.12-5.12-5.12zM181.248 394.752h-49.152c-3.072 0-5.12 2.048-5.12 5.12s2.048 5.12 5.12 5.12h49.152c3.072 0 5.12-2.048 5.12-5.12s-2.048-5.12-5.12-5.12zM742.4 366.080h-49.152c-3.072 0-5.12 2.048-5.12 5.12s2.048 5.12 5.12 5.12h49.152c3.072 0 5.12-2.048 5.12-5.12s-2.048-5.12-5.12-5.12zM330.752 366.080h-49.152c-3.072 0-5.12 2.048-5.12 5.12s2.048 5.12 5.12 5.12h49.152c3.072 0 5.12-2.048 5.12-5.12s-2.048-5.12-5.12-5.12zM607.232 352.768h-190.464c-3.072 0-5.12 2.048-5.12 5.12s2.048 5.12 5.12 5.12h190.464c3.072 0 5.12-2.048 5.12-5.12s-2.048-5.12-5.12-5.12zM703.488 307.712h-382.976v281.6h382.976v-281.6zM340.992 328.192h342.016v240.64h-342.016v-240.64z" />
<glyph unicode="&#xe919;" glyph-name="arrow-left-1" d="M672-64l192 192-320 320 320 320-192 192-512-512z" />
<glyph unicode="&#xe91a;" glyph-name="arrow-left-2" d="M672-64l128 128-384 384 384 384-128 128-512-512 512-512z" />
<glyph unicode="&#xe91b;" glyph-name="arrow-left-3" d="M672-64l96 96-416 416 416 416-96 96-512-512 512-512z" />
<glyph unicode="&#xe91c;" glyph-name="arrow-left-4" d="M672-64l64 64-448 448 448 448-64 64-512-512 512-512z" />
<glyph unicode="&#xe91d;" glyph-name="arrow-left-14" d="M384 800l-352-352 352-352v288h576v128h-576z" />
<glyph unicode="&#xe91e;" glyph-name="arrow-left-8" d="M402.752 82.752l-320 320c-25.024 24.96-25.024 65.536 0 90.496l320 320c25.024 25.024 65.536 25.024 90.496 0s25.024-65.536 0-90.496l-210.752-210.752h613.504c35.328 0 64-28.672 64-64s-28.672-64-64-64h-613.504l210.752-210.752c12.48-12.48 18.752-28.864 18.752-45.248s-6.272-32.768-18.752-45.248c-25.024-25.024-65.536-25.024-90.496 0z" />
<glyph unicode="&#xe91f;" glyph-name="arrow-left-9" d="M0 448l512-512v320h512v384h-512v320l-512-512zM448 576h512v-256h-512v-229.504l-357.504 357.504 357.504 357.504v-229.504z" />
<glyph unicode="&#xe920;" glyph-name="arrow-left-10" d="M0 448l512-512v320h512v384h-512v320l-512-512zM152 509.504l16 16v-155.008l-16 16v123.008zM136 402.496l-16 16v59.008l16 16v-91.008zM184 541.504l16 16v-219.008l-16 16v187.008zM216 573.504l16 16v-283.008l-16 16v251.008zM248 605.504l16 16v-347.008l-16 16v315.008zM280 637.504l16 16v-411.008l-16 16v379.008zM312 669.504l16 16v-475.008l-16 16v443.008zM344 701.504l16 16v-539.008l-16 16v507.008zM376 733.504l16 16v-603.008l-16 16v571.008zM408 765.504l16 16v-667.008l-16 16v635.008zM104 461.504v-27.008l-13.504 13.504 13.504 13.504zM472 320v256h16v-256h-16zM504 320v256h16v-256h-16zM536 320v256h16v-256h-16zM568 320v256h16v-256h-16zM600 320v256h16v-256h-16zM632 320v256h16v-256h-16zM664 320v256h16v-256h-16zM696 320v256h16v-256h-16zM728 320v256h16v-256h-16zM760 320v256h16v-256h-16zM792 320v256h16v-256h-16zM824 320v256h16v-256h-16zM856 320v256h16v-256h-16zM888 320v256h16v-256h-16zM920 320v256h16v-256h-16zM960 320h-8v256h8v-256zM448 576h8v-256h-8v-229.504l-8 8v699.008l8 8v-229.504z" />
<glyph unicode="&#xe921;" glyph-name="arrow-left-11" d="M0 416l384 384v-256l640-96v-64l-640-96v-256z" />
<glyph unicode="&#xe922;" glyph-name="arrow-left-13" d="M448 960l-448-512 448-512v372.48l576-116.48v512l-576-116.48v372.48zM960 628.48v-360.896l-576 116.48v-277.696l-298.944 341.632 298.944 341.696v-277.696l576 116.48z" />
<glyph unicode="&#xe923;" glyph-name="arrow-left-15" d="M768 960l-512-512 512-512-256 512z" />
<glyph unicode="&#xe924;" glyph-name="arrow-left-16" d="M960 640h64v-384h-64zM832 640h64v-384h-64zM704 640h64v-384h-64zM0 448l448 448v-256h192v-384h-192v-256z" />
<glyph unicode="&#xe925;" glyph-name="arrow-right-1" d="M352 960l-192-192 320-320-320-320 192-192 512 512z" />
<glyph unicode="&#xe926;" glyph-name="arrow-right-2" d="M352 960l-128-128 384-384-384-384 128-128 512 512-512 512z" />
<glyph unicode="&#xe927;" glyph-name="arrow-right-3" d="M352 960l-96-96 416-416-416-416 96-96 512 512-512 512z" />
<glyph unicode="&#xe928;" glyph-name="arrow-right-4" d="M352 960l-64-64 448-448-448-448 64-64 512 512-512 512z" />
<glyph unicode="&#xe929;" glyph-name="arrow-left-17" d="M32 448l480-480v288h512v384h-512v288z" />
<glyph unicode="&#xe92a;" glyph-name="arrow-right-17" d="M992 448l-480 480v-288h-512v-384h512v-288z" />
<glyph unicode="&#xe92b;" glyph-name="arrow-right-14" d="M640 96l352 352-352 352v-288h-576v-128h576z" />
<glyph unicode="&#xe92c;" glyph-name="arrow-right-8" d="M621.248 82.752l320 320c25.024 24.96 25.024 65.536 0 90.496l-320 320c-25.024 25.024-65.536 25.024-90.496 0s-25.024-65.536 0-90.496l210.752-210.752h-613.504c-35.328 0-64-28.672-64-64s28.672-64 64-64h613.504l-210.752-210.752c-12.48-12.48-18.752-28.864-18.752-45.248s6.272-32.768 18.752-45.248c25.024-25.024 65.536-25.024 90.496 0z" />
<glyph unicode="&#xe92d;" glyph-name="arrow-right-9" d="M1024 448l-512 512v-320h-512v-384h512v-320l512 512zM576 320h-512v256h512v229.504l357.504-357.504-357.504-357.504v229.504z" />
<glyph unicode="&#xe92e;" glyph-name="arrow-right-10" d="M1024 448l-512 512v-320h-512v-384h512v-320l512 512zM872 386.496l-16-16v155.008l16-16v-123.008zM888 493.504l16-16v-59.008l-16-16v91.008zM840 354.496l-16-16v219.008l16-16v-187.008zM808 322.496l-16-16v283.008l16-16v-251.008zM776 290.496l-16-16v347.008l16-16v-315.008zM744 258.496l-16-16v411.008l16-16v-379.008zM712 226.496l-16-16v475.008l16-16v-443.008zM680 194.496l-16-16v539.008l16-16v-507.008zM648 162.496l-16-16v603.008l16-16v-571.008zM616 130.496l-16-16v667.008l16-16v-635.008zM920 434.496v27.008l13.504-13.504-13.504-13.504zM552 576v-256h-16v256h16zM520 576v-256h-16v256h16zM488 576v-256h-16v256h16zM456 576v-256h-16v256h16zM424 576v-256h-16v256h16zM392 576v-256h-16v256h16zM360 576v-256h-16v256h16zM328 576v-256h-16v256h16zM296 576v-256h-16v256h16zM264 576v-256h-16v256h16zM232 576v-256h-16v256h16zM200 576v-256h-16v256h16zM168 576v-256h-16v256h16zM136 576v-256h-16v256h16zM104 576v-256h-16v256h16zM64 576h8v-256h-8v256zM576 320h-8v256h8v229.504l8-8v-699.008l-8-8v229.504z" />
<glyph unicode="&#xe92f;" glyph-name="arrow-right-11" d="M1024 416l-384 384v-256l-640-96v-64l640-96v-256z" />
<glyph unicode="&#xe930;" glyph-name="arrow-right-13" d="M576-64l448 512-448 512v-372.48l-576 116.48v-512l576 116.48v-372.48zM64 267.52v360.896l576-116.48v277.696l298.944-341.696-298.944-341.696v277.696l-576-116.48z" />
<glyph unicode="&#xe931;" glyph-name="arrow-right-15" d="M256-64l512 512-512 512 256-512z" />
<glyph unicode="&#xe932;" glyph-name="arrow-right-16" d="M0 640h64v-384h-64zM128 640h64v-384h-64zM256 640h64v-384h-64zM1024 448l-448 448v-256h-192v-384h192v-256z" />
<glyph unicode="&#xe933;" glyph-name="arrow-left-18" d="M640 736l-288-288 288-288v576z" />
<glyph unicode="&#xe934;" glyph-name="arrow-right-18" d="M384 160l288 288-288 288v-576z" />
<glyph unicode="&#xe935;" glyph-name="arrow-up-1" d="M0 288l192-192 320 320 320-320 192 192-512 512z" />
<glyph unicode="&#xe936;" glyph-name="arrow-down-1" d="M1024 608l-192 192-320-320-320 320-192-192 512-512z" />
<glyph unicode="&#xe937;" glyph-name="arrow-up-2" d="M0 288l128-128 384 384 384-384 128 128-512 512-512-512z" />
<glyph unicode="&#xe938;" glyph-name="arrow-down-2" d="M1024 608l-128 128-384-384-384 384-128-128 512-512 512 512z" />
<glyph unicode="&#xe939;" glyph-name="arrow-up-3" d="M0 288l96-96 416 416 416-416 96 96-512 512-512-512z" />
<glyph unicode="&#xe93a;" glyph-name="arrow-down-3" d="M1024 608l-96 96-416-416-416 416-96-96 512-512 512 512z" />
<glyph unicode="&#xe93b;" glyph-name="arrow-up-4" d="M0 288l64-64 448 448 448-448 64 64-512 512-512-512z" />
<glyph unicode="&#xe93c;" glyph-name="arrow-down-4" d="M1024 608l-64 64-448-448-448 448-64-64 512-512 512 512z" />
<glyph unicode="&#xe93d;" glyph-name="arrow-up-5" d="M800 320l-288 288-288-288h576z" />
<glyph unicode="&#xe93e;" glyph-name="arrow-down-5" d="M224 576l288-288 288 288h-576z" />
<glyph unicode="&#xe93f;" glyph-name="arrow-up-7" d="M864 576l-352 352-352-352h288v-576h128v576z" />
<glyph unicode="&#xe940;" glyph-name="arrow-down-7" d="M160 320l352-352 352 352h-288v576h-128v-576z" />
<glyph unicode="&#xe941;" glyph-name="arrow-up-8" d="M877.248 557.248l-320 320c-24.96 25.024-65.536 25.024-90.496 0l-320-320c-25.024-25.024-25.024-65.536 0-90.496s65.536-25.024 90.496 0l210.752 210.752v-613.504c0-35.328 28.672-64 64-64s64 28.672 64 64v613.504l210.752-210.752c12.48-12.48 28.864-18.752 45.248-18.752s32.768 6.272 45.248 18.752c25.024 25.024 25.024 65.536 0 90.496z" />
<glyph unicode="&#xe942;" glyph-name="arrow-left-circle-1" d="M512-64c282.752 0 512 229.248 512 512s-229.248 512-512 512c-282.752 0-512-229.248-512-512s229.248-512 512-512zM512 864c229.76 0 416-186.24 416-416s-186.24-416-416-416c-229.76 0-416 186.24-416 416s186.24 416 416 416zM480 704l-256-256 256-256 96 96-96 96h288v128h-288l96 96z" />
<glyph unicode="&#xe943;" glyph-name="arrow-left-5" d="M716.8-64c6.554 0 13.107 2.509 18.125 7.475 9.984 9.984 9.984 26.214 0 36.198l-442.675 442.675 442.675 442.675c9.984 9.984 9.984 26.214 0 36.198s-26.214 9.984-36.198 0l-460.8-460.8c-9.984-9.984-9.984-26.214 0-36.198l460.8-460.8c5.018-5.018 11.571-7.475 18.125-7.475z" />
<glyph unicode="&#xe944;" glyph-name="arrow-right-5" d="M256-64c-6.554 0-13.107 2.509-18.125 7.475-9.984 9.984-9.984 26.214 0 36.198l442.675 442.675-442.675 442.675c-9.984 9.984-9.984 26.214 0 36.198s26.214 9.984 36.198 0l460.8-460.8c9.984-9.984 9.984-26.214 0-36.198l-460.8-460.8c-5.018-5.018-11.571-7.475-18.125-7.475z" />
<glyph unicode="&#xe945;" glyph-name="arrow-left-6" d="M33.075 440.525l307.2 307.2c9.984 9.984 26.214 9.984 36.198 0s9.984-26.214 0-36.198l-263.475-263.475h834.202c14.131 0 25.6-11.469 25.6-25.6s-11.469-25.6-25.6-25.6h-834.202l263.475-263.475c9.984-9.984 9.984-26.214 0-36.198-5.018-5.018-11.571-7.475-18.125-7.475s-13.107 2.509-18.125 7.475l-307.2 307.2c-9.984 9.984-9.984 26.214 0 36.198z" />
<glyph unicode="&#xe946;" glyph-name="arrow-right-6" d="M990.925 440.525l-307.2 307.2c-9.984 9.984-26.214 9.984-36.198 0s-9.984-26.214 0-36.198l263.475-263.475h-834.202c-14.131 0-25.6-11.469-25.6-25.6s11.469-25.6 25.6-25.6h834.202l-263.475-263.475c-9.984-9.984-9.984-26.214 0-36.198 5.018-5.018 11.571-7.475 18.125-7.475s13.107 2.509 18.125 7.475l307.2 307.2c9.984 9.984 9.984 26.214 0 36.198z" />
<glyph unicode="&#xe947;" glyph-name="arrow-down-8" d="M877.248 338.752l-320-320c-24.96-25.024-65.536-25.024-90.496 0l-320 320c-25.024 25.024-25.024 65.536 0 90.496s65.536 25.024 90.496 0l210.752-210.752v613.504c0 35.328 28.672 64 64 64s64-28.672 64-64v-613.504l210.752 210.752c12.48 12.48 28.864 18.752 45.248 18.752s32.768-6.272 45.248-18.752c25.024-25.024 25.024-65.536 0-90.496z" />
<glyph unicode="&#xe948;" glyph-name="arrow-right-circle-1" d="M512 960c-282.752 0-512-229.248-512-512s229.248-512 512-512 512 229.248 512 512-229.248 512-512 512zM512 32c-229.76 0-416 186.24-416 416s186.24 416 416 416 416-186.24 416-416-186.24-416-416-416zM544 192l256 256-256 256-96-96 96-96h-288v-128h288l-96-96z" />
<glyph unicode="&#xe949;" glyph-name="arrow-left-7" d="M30.72 442.88l215.040 209.92c10.24 10.24 25.6 10.24 35.84 0s10.24-25.6 0-35.84l-168.96-168.96h834.56c15.36 0 25.6-10.24 25.6-25.6s-10.24-25.6-25.6-25.6h-834.56l168.96-168.96c10.24-10.24 10.24-25.6 0-35.84-5.12-5.12-10.24-5.12-20.48-5.12s-15.36 0-20.48 5.12l-209.92 209.92c-5.12 10.24-5.12 30.72 0 40.96v0z" />
<glyph unicode="&#xe94a;" glyph-name="arrow-right-7" d="M967.68 442.88c10.24-10.24 10.24-25.6 0-35.84l-215.040-215.040c-5.12-5.12-10.24-5.12-20.48-5.12s-15.36 0-20.48 5.12c-10.24 10.24-10.24 25.6 0 35.84l168.96 168.96h-829.44c-15.36 0-25.6 10.24-25.6 25.6s10.24 25.6 25.6 25.6h834.56l-168.96 168.96c-10.24 10.24-10.24 25.6 0 35.84s25.6 10.24 35.84 0l215.040-209.92z" />
<glyph unicode="&#xe94b;" glyph-name="arrow-left-12" d="M522.24 630.272c0-19.456 15.36-34.816 34.816-34.816s34.816 15.36 34.816 34.816c0 19.456-15.36 34.816-34.816 34.816s-34.816-15.36-34.816-34.816zM522.24 448c0-19.456 15.36-34.816 34.816-34.816s34.816 15.36 34.816 34.816c0 19.456-15.36 34.816-34.816 34.816s-34.816-15.36-34.816-34.816zM522.24 357.888c0-19.456 15.36-34.816 34.816-34.816s34.816 15.36 34.816 34.816c0 18.432-15.36 33.792-34.816 33.792s-34.816-15.36-34.816-33.792zM522.24 265.728c0-18.432 15.36-33.792 34.816-33.792s34.816 15.36 34.816 33.792c0 19.456-15.36 34.816-34.816 34.816s-34.816-15.36-34.816-34.816zM432.128 357.888c0-19.456 15.36-34.816 33.792-34.816 19.456 0 34.816 15.36 34.816 34.816 0 18.432-15.36 33.792-34.816 33.792-18.432 0-33.792-15.36-33.792-33.792zM432.128 539.136c0-18.432 15.36-34.816 33.792-34.816 19.456 0 34.816 16.384 34.816 34.816s-15.36 33.792-34.816 33.792c-18.432 0-33.792-15.36-33.792-33.792zM613.376 175.616c0-19.456 15.36-34.816 34.816-34.816 18.432 0 34.816 15.36 34.816 34.816s-16.384 34.816-34.816 34.816c-19.456 0-34.816-15.36-34.816-34.816zM340.992 448c0-19.456 15.36-34.816 34.816-34.816 18.432 0 34.816 15.36 34.816 34.816s-16.384 34.816-34.816 34.816c-19.456 0-34.816-15.36-34.816-34.816zM432.128 448c0-19.456 15.36-34.816 33.792-34.816 19.456 0 34.816 15.36 34.816 34.816s-15.36 34.816-34.816 34.816c-18.432 0-33.792-15.36-33.792-34.816zM522.24 539.136c0-18.432 15.36-34.816 34.816-34.816s34.816 16.384 34.816 34.816c0 18.432-15.36 33.792-34.816 33.792s-34.816-15.36-34.816-33.792zM613.376 720.384c0-18.432 15.36-34.816 34.816-34.816 18.432 0 34.816 15.36 34.816 34.816s-16.384 34.816-34.816 34.816c-19.456 0-34.816-15.36-34.816-34.816zM613.376 265.728c0-18.432 15.36-33.792 34.816-33.792 18.432 0 34.816 15.36 34.816 33.792 0 19.456-16.384 34.816-34.816 34.816-19.456 0-34.816-15.36-34.816-34.816zM613.376 630.272c0-19.456 15.36-34.816 34.816-34.816 18.432 0 34.816 15.36 34.816 34.816s-16.384 34.816-34.816 34.816c-19.456 0-34.816-15.36-34.816-34.816zM613.376 448c0-19.456 15.36-34.816 34.816-34.816 18.432 0 34.816 15.36 34.816 34.816s-16.384 34.816-34.816 34.816c-19.456 0-34.816-15.36-34.816-34.816zM613.376 539.136c0-18.432 15.36-34.816 34.816-34.816 18.432 0 34.816 16.384 34.816 34.816s-16.384 33.792-34.816 33.792c-19.456 0-34.816-15.36-34.816-33.792zM613.376 357.888c0-19.456 15.36-34.816 34.816-34.816 18.432 0 34.816 15.36 34.816 34.816 0 18.432-16.384 33.792-34.816 33.792-19.456 0-34.816-15.36-34.816-33.792z" />
<glyph unicode="&#xe94c;" glyph-name="arrow-right-12" d="M501.76 630.272c0-19.456-15.36-34.816-34.816-34.816s-34.816 15.36-34.816 34.816c0 19.456 15.36 34.816 34.816 34.816s34.816-15.36 34.816-34.816zM501.76 448c0-19.456-15.36-34.816-34.816-34.816s-34.816 15.36-34.816 34.816c0 19.456 15.36 34.816 34.816 34.816s34.816-15.36 34.816-34.816zM501.76 357.888c0-19.456-15.36-34.816-34.816-34.816s-34.816 15.36-34.816 34.816c0 18.432 15.36 33.792 34.816 33.792s34.816-15.36 34.816-33.792zM501.76 265.728c0-18.432-15.36-33.792-34.816-33.792s-34.816 15.36-34.816 33.792c0 19.456 15.36 34.816 34.816 34.816s34.816-15.36 34.816-34.816zM591.872 357.888c0-19.456-15.36-34.816-33.792-34.816-19.456 0-34.816 15.36-34.816 34.816 0 18.432 15.36 33.792 34.816 33.792 18.432 0 33.792-15.36 33.792-33.792zM591.872 539.136c0-18.432-15.36-34.816-33.792-34.816-19.456 0-34.816 16.384-34.816 34.816s15.36 33.792 34.816 33.792c18.432 0 33.792-15.36 33.792-33.792zM410.624 175.616c0-19.456-15.36-34.816-34.816-34.816-18.432 0-34.816 15.36-34.816 34.816s16.384 34.816 34.816 34.816c19.456 0 34.816-15.36 34.816-34.816zM683.008 448c0-19.456-15.36-34.816-34.816-34.816-18.432 0-34.816 15.36-34.816 34.816s16.384 34.816 34.816 34.816c19.456 0 34.816-15.36 34.816-34.816zM591.872 448c0-19.456-15.36-34.816-33.792-34.816-19.456 0-34.816 15.36-34.816 34.816s15.36 34.816 34.816 34.816c18.432 0 33.792-15.36 33.792-34.816zM501.76 539.136c0-18.432-15.36-34.816-34.816-34.816s-34.816 16.384-34.816 34.816c0 18.432 15.36 33.792 34.816 33.792s34.816-15.36 34.816-33.792zM410.624 720.384c0-18.432-15.36-34.816-34.816-34.816-18.432 0-34.816 15.36-34.816 34.816s16.384 34.816 34.816 34.816c19.456 0 34.816-15.36 34.816-34.816zM410.624 265.728c0-18.432-15.36-33.792-34.816-33.792-18.432 0-34.816 15.36-34.816 33.792 0 19.456 16.384 34.816 34.816 34.816 19.456 0 34.816-15.36 34.816-34.816zM410.624 630.272c0-19.456-15.36-34.816-34.816-34.816-18.432 0-34.816 15.36-34.816 34.816s16.384 34.816 34.816 34.816c19.456 0 34.816-15.36 34.816-34.816zM410.624 448c0-19.456-15.36-34.816-34.816-34.816-18.432 0-34.816 15.36-34.816 34.816s16.384 34.816 34.816 34.816c19.456 0 34.816-15.36 34.816-34.816zM410.624 539.136c0-18.432-15.36-34.816-34.816-34.816-18.432 0-34.816 16.384-34.816 34.816s16.384 33.792 34.816 33.792c19.456 0 34.816-15.36 34.816-33.792zM410.624 357.888c0-19.456-15.36-34.816-34.816-34.816-18.432 0-34.816 15.36-34.816 34.816 0 18.432 16.384 33.792 34.816 33.792 19.456 0 34.816-15.36 34.816-33.792z" />
<glyph unicode="&#xe94d;" glyph-name="arrow-left-circle-2" d="M512 960c282.752 0 512-229.248 512-512s-229.248-512-512-512-512 229.248-512 512 229.248 512 512 512zM448 224v160h320v128h-320v160l-224-224 224-224z" />
<glyph unicode="&#xe94e;" glyph-name="arrow-right-circle-2" d="M512 960c-282.752 0-512-229.248-512-512s229.248-512 512-512 512 229.248 512 512-229.248 512-512 512zM576 224v160h-320v128h320v160l224-224-224-224z" />
<glyph unicode="&#xe94f;" glyph-name="arrow-left-circle-3" d="M512 960c282.752 0 512-229.248 512-512s-229.248-512-512-512-512 229.248-512 512 229.248 512 512 512zM512 64c212.096 0 384 171.904 384 384s-171.904 384-384 384c-212.096 0-384-171.904-384-384s171.904-384 384-384zM448 224v160h320v128h-320v160l-224-224z" />
<glyph unicode="&#xe950;" glyph-name="arrow-right-circle-3" d="M512 960c-282.752 0-512-229.248-512-512s229.248-512 512-512 512 229.248 512 512-229.248 512-512 512zM512 64c-212.096 0-384 171.904-384 384s171.904 384 384 384c212.096 0 384-171.904 384-384s-171.904-384-384-384zM576 224v160h-320v128h320v160l224-224z" />
<glyph unicode="&#xe951;" glyph-name="arrow-left-circle-4" d="M512-64c282.752 0 512 229.248 512 512s-229.248 512-512 512-512-229.248-512-512 229.248-512 512-512zM512 864c229.76 0 416-186.24 416-416s-186.24-416-416-416-416 186.24-416 416 186.24 416 416 416zM669.248 642.752l-90.496 90.496-285.248-285.248 285.248-285.248 90.496 90.496-194.752 194.752z" />
<glyph unicode="&#xe952;" glyph-name="arrow-right-circle-4" d="M512 960c-282.752 0-512-229.248-512-512s229.248-512 512-512 512 229.248 512 512-229.248 512-512 512zM512 32c-229.76 0-416 186.24-416 416s186.24 416 416 416 416-186.24 416-416-186.24-416-416-416zM354.752 253.248l90.496-90.496 285.248 285.248-285.248 285.248-90.496-90.496 194.752-194.752z" />
<glyph unicode="&#xe953;" glyph-name="arrow-left-square-1" d="M0-64h1024v1024h-1024v-1024zM896 832v-768h-768v768h768zM512 160l-288 288 288 288v-224h320v-128h-320z" />
<glyph unicode="&#xe954;" glyph-name="arrow-right-square-1" d="M1024 960h-1024v-1024h1024v1024zM128 64v768h768v-768h-768zM512 736l288-288-288-288v224h-320v128h320z" />
<glyph unicode="&#xe955;" glyph-name="woolamp" d="M972.8 130.56h-921.6c-17.408 0-30.72 13.312-30.72 30.72v573.44c0 17.408 13.312 30.72 30.72 30.72h921.6c17.408 0 30.72-13.312 30.72-30.72v-573.44c0-17.408-13.312-30.72-30.72-30.72zM51.2 744.96c-6.144 0-10.24-4.096-10.24-10.24v-573.44c0-6.144 4.096-10.24 10.24-10.24h921.6c6.144 0 10.24 4.096 10.24 10.24v573.44c0 6.144-4.096 10.24-10.24 10.24h-921.6zM586.752 528.896c0-5.655-4.585-10.24-10.24-10.24s-10.24 4.585-10.24 10.24c0 5.655 4.585 10.24 10.24 10.24s10.24-4.585 10.24-10.24zM627.712 528.896c0-5.655-4.585-10.24-10.24-10.24s-10.24 4.585-10.24 10.24c0 5.655 4.585 10.24 10.24 10.24s10.24-4.585 10.24-10.24zM668.672 528.896c0-5.655-4.585-10.24-10.24-10.24s-10.24 4.585-10.24 10.24c0 5.655 4.585 10.24 10.24 10.24s10.24-4.585 10.24-10.24zM883.712 453.12h-307.2c-6.144 0-10.24 4.096-10.24 10.24s4.096 10.24 10.24 10.24h307.2c6.144 0 10.24-4.096 10.24-10.24s-5.12-10.24-10.24-10.24zM800.768 401.92h-225.28c-6.144 0-10.24 4.096-10.24 10.24s4.096 10.24 10.24 10.24h225.28c6.144 0 10.24-4.096 10.24-10.24s-5.12-10.24-10.24-10.24zM449.536 412.16l-119.808 119.808c-2.048 2.048-5.12 3.072-7.168 3.072-3.072 0-5.12-1.024-7.168-3.072l-73.728-73.728-39.936 39.936c-4.096 4.096-10.24 4.096-14.336 0l-87.040-87.040c-4.096-4.096-4.096-10.24 0-14.336s10.24-4.096 14.336 0l79.872 79.872 79.872-79.872c2.048-2.048 5.12-3.072 7.168-3.072 1.024 0 3.072 0 4.096 1.024 1.024 0 2.048 1.024 3.072 2.048 4.096 4.096 4.096 10.24 0 14.336l-32.768 32.768 66.56 66.56 112.64-112.64c2.048-2.048 5.12-3.072 7.168-3.072 3.072 0 5.12 1.024 7.168 3.072 3.072 3.072 3.072 10.24 0 14.336zM632.832 331.264v0c0-17.408-13.312-30.72-30.72-30.72v0c-17.408 0-30.72 13.312-30.72 30.72v0c0 17.408 13.312 30.72 30.72 30.72v0c17.408-1.024 30.72-14.336 30.72-30.72zM599.040 318.976v0c-2.048 1.024-2.048 2.048-1.024 2.048l9.216 8.192-9.216 9.216c-1.024 1.024-1.024 2.048 0 2.048s2.048 1.024 2.048 0l11.264-11.264-11.264-10.24c0 1.024-1.024 0-1.024 0zM949.248 494.080v0c-3.072 0-5.12 2.048-5.12 5.12v40.96c0 3.072 2.048 5.12 5.12 5.12v0c3.072 0 5.12-2.048 5.12-5.12v-40.96c0-3.072-3.072-5.12-5.12-5.12zM949.248 432.64v0c-3.072 0-5.12 2.048-5.12 5.12v40.96c0 3.072 2.048 5.12 5.12 5.12v0c3.072 0 5.12-2.048 5.12-5.12v-40.96c0-3.072-3.072-5.12-5.12-5.12zM949.248 371.2v0c-3.072 0-5.12 2.048-5.12 5.12v40.96c0 3.072 2.048 5.12 5.12 5.12v0c3.072 0 5.12-2.048 5.12-5.12v-40.96c0-3.072-3.072-5.12-5.12-5.12z" />
<glyph unicode="&#xe956;" glyph-name="mercury" d="M424.96 207.36h-317.44c-17.408 0-30.72 13.312-30.72 30.72v419.84c0 17.408 13.312 30.72 30.72 30.72h317.44c17.408 0 30.72-13.312 30.72-30.72v-419.84c0-17.408-13.312-30.72-30.72-30.72zM107.52 668.16c-6.144 0-10.24-4.096-10.24-10.24v-419.84c0-6.144 4.096-10.24 10.24-10.24h317.44c6.144 0 10.24 4.096 10.24 10.24v419.84c0 6.144-4.096 10.24-10.24 10.24h-317.44zM603.136 581.12h-70.656c-6.144 0-10.24 4.096-10.24 10.24s4.096 10.24 10.24 10.24h70.656c6.144 0 10.24-4.096 10.24-10.24s-4.096-10.24-10.24-10.24zM581.632 294.4h-49.152c-6.144 0-10.24 4.096-10.24 10.24s4.096 10.24 10.24 10.24h49.152c6.144 0 10.24-4.096 10.24-10.24s-4.096-10.24-10.24-10.24zM684.032 294.4h-49.152c-6.144 0-10.24 4.096-10.24 10.24s4.096 10.24 10.24 10.24h49.152c6.144 0 10.24-4.096 10.24-10.24s-5.12-10.24-10.24-10.24zM785.408 499.2h-252.928c-6.144 0-10.24 4.096-10.24 10.24s4.096 10.24 10.24 10.24h252.928c6.144 0 10.24-4.096 10.24-10.24s-4.096-10.24-10.24-10.24zM936.96 444.928h-404.48c-6.144 0-10.24 4.096-10.24 10.24s4.096 10.24 10.24 10.24h404.48c6.144 0 10.24-4.096 10.24-10.24s-4.096-10.24-10.24-10.24zM871.424 389.632h-338.944c-6.144 0-10.24 4.096-10.24 10.24s4.096 10.24 10.24 10.24h337.92c6.144 0 10.24-4.096 10.24-10.24s-4.096-10.24-9.216-10.24zM271.36 412.16c-3.072 0-5.12 1.024-7.168 3.072l-44.032 44.032c-4.096 4.096-10.24 4.096-14.336 0l-44.032-44.032c-4.096-4.096-10.24-4.096-14.336 0s-4.096 10.24 0 14.336l44.032 44.032c12.288 12.288 31.744 12.288 43.008 0l44.032-44.032c4.096-4.096 4.096-10.24 0-14.336-1.024-2.048-4.096-3.072-7.168-3.072zM377.856 412.16c-3.072 0-5.12 1.024-7.168 3.072l-61.44 61.44c-4.096 4.096-10.24 4.096-14.336 0l-38.912-37.888c-4.096-4.096-10.24-4.096-14.336 0s-4.096 10.24 0 14.336l38.912 38.912c12.288 12.288 31.744 12.288 43.008 0l61.44-61.44c4.096-4.096 4.096-10.24 0-14.336-2.048-3.072-5.12-4.096-7.168-4.096z" />
<glyph unicode="&#xe957;" glyph-name="marble" d="M838.656 453.12h76.8v-10.24h-76.8v10.24zM104.448 453.12h81.92v-10.24h-81.92v10.24zM616.448 453.12h122.88v-10.24h-122.88v10.24zM288.768 453.12h122.88v-10.24h-122.88v10.24zM514.048 335.36c-62.464 0-112.64 50.176-112.64 112.64s50.176 112.64 112.64 112.64 112.64-50.176 112.64-112.64-50.176-112.64-112.64-112.64zM514.048 540.16c-51.2 0-92.16-40.96-92.16-92.16s40.96-92.16 92.16-92.16 92.16 40.96 92.16 92.16-40.96 92.16-92.16 92.16zM790.528 386.56c-33.792 0-61.44 27.648-61.44 61.44s27.648 61.44 61.44 61.44 61.44-27.648 61.44-61.44-26.624-61.44-61.44-61.44zM790.528 488.96c-22.528 0-40.96-18.432-40.96-40.96s18.432-40.96 40.96-40.96 40.96 18.432 40.96 40.96-17.408 40.96-40.96 40.96zM944.128 412.16c-19.456 0-35.84 16.384-35.84 35.84s16.384 35.84 35.84 35.84 35.84-16.384 35.84-35.84-15.36-35.84-35.84-35.84zM944.128 463.36c-8.192 0-15.36-7.168-15.36-15.36s7.168-15.36 15.36-15.36 15.36 7.168 15.36 15.36-6.144 15.36-15.36 15.36zM79.872 412.16c-19.456 0-35.84 16.384-35.84 35.84s16.384 35.84 35.84 35.84 35.84-16.384 35.84-35.84-16.384-35.84-35.84-35.84zM79.872 463.36c-8.192 0-15.36-7.168-15.36-15.36s7.168-15.36 15.36-15.36 15.36 7.168 15.36 15.36-7.168 15.36-15.36 15.36zM237.568 386.56c-33.792 0-61.44 27.648-61.44 61.44s27.648 61.44 61.44 61.44 61.44-27.648 61.44-61.44-26.624-61.44-61.44-61.44zM237.568 488.96c-22.528 0-40.96-18.432-40.96-40.96s18.432-40.96 40.96-40.96 40.96 18.432 40.96 40.96-17.408 40.96-40.96 40.96zM514.048 419.328c-3.072 0-5.12 1.024-7.168 3.072l-21.504 21.504-21.504-21.504c-4.096-4.096-10.24-4.096-14.336 0s-4.096 10.24 0 14.336l21.504 21.504c8.192 8.192 20.48 8.192 28.672 0l21.504-21.504c4.096-4.096 4.096-10.24 0-14.336-2.048-2.048-4.096-3.072-7.168-3.072zM572.416 424.448c-3.072 0-5.12 1.024-7.168 3.072l-33.792 33.792-24.576-24.576c-4.096-4.096-10.24-4.096-14.336 0s-4.096 10.24 0 14.336l24.576 24.576c8.192 8.192 20.48 8.192 28.672 0l33.792-33.792c4.096-4.096 4.096-10.24 0-14.336-2.048-2.048-4.096-3.072-7.168-3.072z" />
<glyph unicode="&#xe958;" glyph-name="fiestar" d="M937.984 716.288h-286.72v-537.6h286.72c16.384 0 30.72 13.312 30.72 30.72v476.16c0 17.408-14.336 30.72-30.72 30.72zM948.224 210.432c0-6.144-5.12-10.24-10.24-10.24h-266.24v495.616h266.24c5.12 0 10.24-4.096 10.24-10.24v-475.136zM86.016 716.288c-16.384 0-30.72-13.312-30.72-30.72v-476.16c0-17.408 14.336-30.72 30.72-30.72h286.72v537.6h-286.72zM353.28 200.192h-266.24c-5.12 0-10.24 4.096-10.24 10.24v475.136c0 6.144 5.12 10.24 10.24 10.24h266.24v-495.616zM640 777.728h-256c-16.384 0-30.72-13.312-30.72-30.72v-598.016c0-17.408 14.336-30.72 30.72-30.72h257.024c16.384 0 30.72 13.312 30.72 30.72v598.016c-1.024 16.384-14.336 30.72-31.744 30.72zM384 757.248h257.024c5.12 0 10.24-5.12 10.24-10.24v-468.992h-277.504v468.992c0 5.12 4.096 10.24 10.24 10.24zM604.16 194.048c6.144 0 10.24-4.096 10.24-10.24s-4.096-10.24-10.24-10.24h-184.32c-6.144 0-10.24 4.096-10.24 10.24s4.096 10.24 10.24 10.24h184.32zM476.16 223.744c0 6.144 4.096 10.24 10.24 10.24h51.2c6.144 0 10.24-4.096 10.24-10.24s-4.096-10.24-10.24-10.24h-51.2c-6.144 0-10.24 4.096-10.24 10.24zM518.144 460.288c-3.072 0-5.12 1.024-7.168 3.072l-38.912 38.912c-4.096 4.096-10.24 4.096-14.336 0l-38.912-38.912c-4.096-4.096-10.24-4.096-14.336 0s-4.096 10.24 0 14.336l38.912 38.912c12.288 12.288 31.744 12.288 43.008 0l38.912-38.912c4.096-4.096 4.096-10.24 0-14.336-2.048-2.048-5.12-3.072-7.168-3.072zM612.352 460.288c-3.072 0-5.12 1.024-7.168 3.072l-57.344 57.344c-4.096 4.096-10.24 4.096-14.336 0l-31.744-30.72c-4.096-4.096-10.24-4.096-14.336 0s-4.096 10.24 0 14.336l31.744 31.744c12.288 12.288 31.744 12.288 43.008 0l57.344-57.344c4.096-4.096 4.096-10.24 0-14.336-2.048-3.072-5.12-4.096-7.168-4.096zM220.16 460.288c-3.072 0-5.12 1.024-7.168 3.072l-38.912 38.912c-4.096 4.096-10.24 4.096-14.336 0l-38.912-38.912c-4.096-4.096-10.24-4.096-14.336 0s-4.096 10.24 0 14.336l38.912 38.912c12.288 12.288 31.744 12.288 43.008 0l38.912-38.912c4.096-4.096 4.096-10.24 0-14.336-2.048-2.048-4.096-3.072-7.168-3.072zM314.368 460.288c-3.072 0-5.12 1.024-7.168 3.072l-57.344 57.344c-4.096 4.096-10.24 4.096-14.336 0l-31.744-31.744c-4.096-4.096-10.24-4.096-14.336 0s-4.096 10.24 0 14.336l31.744 31.744c12.288 12.288 31.744 12.288 43.008 0l57.344-57.344c4.096-4.096 4.096-10.24 0-14.336-2.048-2.048-4.096-3.072-7.168-3.072zM815.104 460.288c-3.072 0-5.12 1.024-7.168 3.072l-38.912 38.912c-4.096 4.096-10.24 4.096-14.336 0l-37.888-38.912c-4.096-4.096-10.24-4.096-14.336 0s-4.096 10.24 0 14.336l38.912 38.912c12.288 12.288 31.744 12.288 43.008 0l38.912-38.912c4.096-4.096 4.096-10.24 0-14.336-3.072-2.048-5.12-3.072-8.192-3.072zM909.312 460.288c-3.072 0-5.12 1.024-7.168 3.072l-57.344 57.344c-4.096 4.096-10.24 4.096-14.336 0l-31.744-30.72c-4.096-4.096-10.24-4.096-14.336 0s-4.096 10.24 0 14.336l31.744 31.744c12.288 12.288 31.744 12.288 43.008 0l57.344-57.344c4.096-4.096 4.096-10.24 0-14.336-1.024-3.072-4.096-4.096-7.168-4.096z" />
<glyph unicode="&#xe959;" glyph-name="wooexpand" d="M278.528 706.048h20.48v-517.12h-20.48v517.12zM147.456 231.936h-30.72c-6.144 0-10.24 4.096-10.24 10.24v0c0 6.144 4.096 10.24 10.24 10.24h30.72c6.144 0 10.24-4.096 10.24-10.24v0c0-6.144-4.096-10.24-10.24-10.24zM370.688 231.936h-30.72c-6.144 0-10.24 4.096-10.24 10.24v0c0 6.144 4.096 10.24 10.24 10.24h30.72c6.144 0 10.24-4.096 10.24-10.24v0c0-6.144-4.096-10.24-10.24-10.24zM817.152 231.936h-30.72c-6.144 0-10.24 4.096-10.24 10.24v0c0 6.144 4.096 10.24 10.24 10.24h30.72c6.144 0 10.24-4.096 10.24-10.24v0c0-6.144-4.096-10.24-10.24-10.24zM917.504 487.936v-235.52c0-6.144-4.096-10.24-10.24-10.24v0c-6.144 0-10.24 4.096-10.24 10.24v235.52c0 6.144 4.096 10.24 10.24 10.24v0c6.144 0 10.24-4.096 10.24-10.24zM247.808 487.936v-235.52c0-6.144-4.096-10.24-10.24-10.24v0c-6.144 0-10.24 4.096-10.24 10.24v235.52c0 6.144 4.096 10.24 10.24 10.24v0c6.144 0 10.24-4.096 10.24-10.24zM471.040 487.936v-235.52c0-6.144-4.096-10.24-10.24-10.24v0c-6.144 0-10.24 4.096-10.24 10.24v235.52c0 6.144 4.096 10.24 10.24 10.24v0c6.144 0 10.24-4.096 10.24-10.24zM563.2 231.936h30.72c6.144 0 10.24 4.096 10.24 10.24s-4.096 10.24-10.24 10.24h-30.72c-6.144 0-10.24-4.096-10.24-10.24s4.096-10.24 10.24-10.24zM684.032 242.176c6.144 0 10.24 4.096 10.24 10.24v235.52c0 6.144-4.096 10.24-10.24 10.24s-10.24-4.096-10.24-10.24v-235.52c0-6.144 4.096-10.24 10.24-10.24zM937.984 716.288h-851.968c-17.408 0-30.72-13.312-30.72-30.72v-476.16c0-17.408 13.312-30.72 30.72-30.72h851.968c17.408 0 30.72 13.312 30.72 30.72v476.16c0 17.408-14.336 30.72-30.72 30.72zM75.776 210.432v475.136c0 6.144 4.096 10.24 10.24 10.24h415.744v-496.64h-415.744c-5.12 1.024-10.24 5.12-10.24 11.264zM724.992 200.192h-202.752v495.616h202.752v-495.616zM948.224 210.432c0-6.144-4.096-10.24-10.24-10.24h-192.512v495.616h192.512c6.144 0 10.24-4.096 10.24-10.24v-475.136z" />
<glyph unicode="&#xe95a;" glyph-name="knily1" d="M1000.448 333.312h-119.808c-17.408 0-30.72 13.312-30.72 30.72v167.936c0 17.408 13.312 30.72 30.72 30.72h118.784v-20.48h-118.784c-6.144 0-10.24-4.096-10.24-10.24v-166.912c0-6.144 4.096-10.24 10.24-10.24h118.784v-21.504zM965.632 404.992c-3.072 0-5.12 1.024-7.168 3.072l-30.72 29.696c-4.096 4.096-10.24 4.096-14.336 0l-18.432-18.432c-4.096-4.096-10.24-4.096-14.336 0s-4.096 10.24 0 14.336l18.432 18.432c11.264 11.264 31.744 11.264 43.008 0l29.696-29.696c4.096-4.096 4.096-10.24 0-14.336-1.024-2.048-4.096-3.072-6.144-3.072zM1003.52 477.696v-26.624l-7.168 7.168c-3.072 3.072-9.216 4.096-13.312 1.024 0 0-1.024-1.024-1.024-1.024l-29.696-29.696c-4.096-4.096-10.24-4.096-14.336 0 0 0 0 0 0 0s0 0 0 0c-3.072 4.096-3.072 10.24 0 14.336l29.696 29.696c4.096 4.096 10.24 7.168 15.36 8.192 7.168 1.024 14.336 0 20.48-3.072zM972.8 765.44h-921.6c-17.408 0-30.72-13.312-30.72-30.72v-573.44c0-17.408 13.312-30.72 30.72-30.72h921.6c17.408 0 30.72 13.312 30.72 30.72v573.44c0 17.408-13.312 30.72-30.72 30.72zM983.040 161.28c0-6.144-4.096-10.24-10.24-10.24h-921.6c-6.144 0-10.24 4.096-10.24 10.24v573.44c0 6.144 4.096 10.24 10.24 10.24h921.6c6.144 0 10.24-4.096 10.24-10.24v-573.44zM481.28 212.48c0-5.655-4.585-10.24-10.24-10.24s-10.24 4.585-10.24 10.24c0 5.655 4.585 10.24 10.24 10.24s10.24-4.585 10.24-10.24zM522.24 212.48c0-5.655-4.585-10.24-10.24-10.24s-10.24 4.585-10.24 10.24c0 5.655 4.585 10.24 10.24 10.24s10.24-4.585 10.24-10.24zM563.2 212.48c0-5.655-4.585-10.24-10.24-10.24s-10.24 4.585-10.24 10.24c0 5.655 4.585 10.24 10.24 10.24s10.24-4.585 10.24-10.24zM204.8 586.24h-102.4c-6.144 0-10.24 4.096-10.24 10.24s4.096 10.24 10.24 10.24h102.4c6.144 0 10.24-4.096 10.24-10.24s-5.12-10.24-10.24-10.24zM409.6 504.32h-307.2c-6.144 0-10.24 4.096-10.24 10.24s4.096 10.24 10.24 10.24h307.2c6.144 0 10.24-4.096 10.24-10.24s-5.12-10.24-10.24-10.24zM512 453.12h-409.6c-6.144 0-10.24 4.096-10.24 10.24s4.096 10.24 10.24 10.24h409.6c6.144 0 10.24-4.096 10.24-10.24s-5.12-10.24-10.24-10.24zM327.68 401.92h-225.28c-6.144 0-10.24 4.096-10.24 10.24s4.096 10.24 10.24 10.24h225.28c6.144 0 10.24-4.096 10.24-10.24s-5.12-10.24-10.24-10.24zM256 350.72c11.264 0 20.48-9.216 20.48-20.48s-9.216-20.48-20.48-20.48h-122.88c-11.264 0-20.48 9.216-20.48 20.48s9.216 20.48 20.48 20.48h122.88zM256 371.2h-122.88c-22.528 0-40.96-18.432-40.96-40.96s18.432-40.96 40.96-40.96h122.88c22.528 0 40.96 18.432 40.96 40.96s-18.432 40.96-40.96 40.96v0zM798.72 333.312h-215.040c-17.408 0-30.72 13.312-30.72 30.72v167.936c0 17.408 13.312 30.72 30.72 30.72h215.040c17.408 0 30.72-13.312 30.72-30.72v-166.912c0-17.408-13.312-31.744-30.72-31.744zM583.68 542.208c-6.144 0-10.24-4.096-10.24-10.24v-166.912c0-6.144 4.096-10.24 10.24-10.24h215.040c6.144 0 10.24 4.096 10.24 10.24v166.912c0 6.144-4.096 10.24-10.24 10.24h-215.040zM696.32 404.992c-3.072 0-5.12 1.024-7.168 3.072l-30.72 29.696c-4.096 4.096-10.24 4.096-14.336 0l-18.432-18.432c-4.096-4.096-10.24-4.096-14.336 0s-4.096 10.24 0 14.336l18.432 18.432c11.264 11.264 31.744 11.264 43.008 0l29.696-29.696c4.096-4.096 4.096-10.24 0-14.336-1.024-2.048-4.096-3.072-6.144-3.072zM763.904 425.472c-3.072 0-5.12 1.024-7.168 3.072l-29.696 29.696c-4.096 4.096-10.24 4.096-14.336 0l-29.696-29.696c-4.096-4.096-10.24-4.096-14.336 0s-4.096 10.24 0 14.336l29.696 29.696c12.288 12.288 31.744 12.288 43.008 0l29.696-29.696c4.096-4.096 4.096-10.24 0-14.336-1.024-2.048-4.096-3.072-7.168-3.072z" />
<glyph unicode="&#xe95b;" glyph-name="storker1" d="M972.8 130.56h-921.6c-17.408 0-30.72 13.312-30.72 30.72v573.44c0 17.408 13.312 30.72 30.72 30.72h921.6c17.408 0 30.72-13.312 30.72-30.72v-573.44c0-17.408-13.312-30.72-30.72-30.72zM51.2 744.96c-6.144 0-10.24-4.096-10.24-10.24v-573.44c0-6.144 4.096-10.24 10.24-10.24h921.6c6.144 0 10.24 4.096 10.24 10.24v573.44c0 6.144-4.096 10.24-10.24 10.24h-921.6zM327.68 352.768h-204.8c-6.144 0-10.24 4.096-10.24 10.24s4.096 10.24 10.24 10.24h204.8c6.144 0 10.24-4.096 10.24-10.24 0-7.168-5.12-10.24-10.24-10.24zM225.28 522.752h-102.4c-6.144 0-10.24 4.096-10.24 10.24s4.096 10.24 10.24 10.24h102.4c6.144 0 10.24-4.096 10.24-10.24s-5.12-10.24-10.24-10.24zM491.52 456.192h-363.52c-8.192 0-15.36 7.168-15.36 15.36s7.168 15.36 15.36 15.36h363.52c8.192 0 15.36-7.168 15.36-15.36 0-7.168-7.168-15.36-15.36-15.36zM430.080 392.704h-307.2c-6.144 0-10.24 4.096-10.24 10.24s4.096 10.24 10.24 10.24h307.2c6.144 0 10.24-4.096 10.24-10.24s-5.12-10.24-10.24-10.24zM901.12 522.752h-241.664c-8.192 0-15.36 7.168-15.36 15.36v77.824c0 8.192 7.168 15.36 15.36 15.36h241.664c8.192 0 15.36-7.168 15.36-15.36v-77.824c0-8.192-7.168-15.36-15.36-15.36zM659.456 620.032c-3.072 0-5.12-2.048-5.12-5.12v-77.824c0-3.072 2.048-5.12 5.12-5.12h241.664c3.072 0 5.12 2.048 5.12 5.12v77.824c0 3.072-2.048 5.12-5.12 5.12h-241.664zM803.84 582.144h-122.88c-3.072 0-5.12 2.048-5.12 5.12v0c0 3.072 2.048 5.12 5.12 5.12h122.88c3.072 0 5.12-2.048 5.12-5.12v0c0-3.072-2.048-5.12-5.12-5.12zM752.64 561.664h-71.68c-3.072 0-5.12 2.048-5.12 5.12v0c0 3.072 2.048 5.12 5.12 5.12h71.68c3.072 0 5.12-2.048 5.12-5.12v0c0-3.072-2.048-5.12-5.12-5.12zM885.76 549.376h-26.624c-3.072 0-5.12 2.048-5.12 5.12v0c0 3.072 2.048 5.12 5.12 5.12h26.624c3.072 0 5.12-2.048 5.12-5.12v0c0-2.048-2.048-5.12-5.12-5.12zM901.12 393.728h-241.664c-8.192 0-15.36 7.168-15.36 15.36v77.824c0 8.192 7.168 15.36 15.36 15.36h241.664c8.192 0 15.36-7.168 15.36-15.36v-77.824c0-8.192-7.168-15.36-15.36-15.36zM659.456 492.032c-3.072 0-5.12-2.048-5.12-5.12v-77.824c0-3.072 2.048-5.12 5.12-5.12h241.664c3.072 0 5.12 2.048 5.12 5.12v77.824c0 3.072-2.048 5.12-5.12 5.12h-241.664zM803.84 453.12h-122.88c-3.072 0-5.12 2.048-5.12 5.12v0c0 3.072 2.048 5.12 5.12 5.12h122.88c3.072 0 5.12-2.048 5.12-5.12v0c0-3.072-2.048-5.12-5.12-5.12zM752.64 432.64h-71.68c-3.072 0-5.12 2.048-5.12 5.12v0c0 3.072 2.048 5.12 5.12 5.12h71.68c3.072 0 5.12-2.048 5.12-5.12v0c0-3.072-2.048-5.12-5.12-5.12zM885.76 421.376h-26.624c-3.072 0-5.12 2.048-5.12 5.12v0c0 3.072 2.048 5.12 5.12 5.12h26.624c3.072 0 5.12-2.048 5.12-5.12v0c0-3.072-2.048-5.12-5.12-5.12zM901.12 265.728h-241.664c-8.192 0-15.36 7.168-15.36 15.36v77.824c0 8.192 7.168 15.36 15.36 15.36h241.664c8.192 0 15.36-7.168 15.36-15.36v-77.824c0-9.216-7.168-15.36-15.36-15.36zM659.456 363.008c-3.072 0-5.12-2.048-5.12-5.12v-77.824c0-3.072 2.048-5.12 5.12-5.12h241.664c3.072 0 5.12 2.048 5.12 5.12v77.824c0 3.072-2.048 5.12-5.12 5.12h-241.664zM803.84 324.096h-122.88c-3.072 0-5.12 2.048-5.12 5.12v0c0 3.072 2.048 5.12 5.12 5.12h122.88c3.072 0 5.12-2.048 5.12-5.12v0c0-2.048-2.048-5.12-5.12-5.12zM752.64 303.616h-71.68c-3.072 0-5.12 2.048-5.12 5.12v0c0 3.072 2.048 5.12 5.12 5.12h71.68c3.072 0 5.12-2.048 5.12-5.12v0c0-2.048-2.048-5.12-5.12-5.12zM885.76 292.352h-26.624c-3.072 0-5.12 2.048-5.12 5.12v0c0 3.072 2.048 5.12 5.12 5.12h26.624c3.072 0 5.12-2.048 5.12-5.12v0c0-2.048-2.048-5.12-5.12-5.12z" />
<glyph unicode="&#xe95c;" glyph-name="knily" d="M1000.448 333.312h-119.808c-17.408 0-30.72 13.312-30.72 30.72v167.936c0 17.408 13.312 30.72 30.72 30.72h118.784v-20.48h-118.784c-6.144 0-10.24-4.096-10.24-10.24v-166.912c0-6.144 4.096-10.24 10.24-10.24h118.784v-21.504zM965.632 404.992c-3.072 0-5.12 1.024-7.168 3.072l-30.72 29.696c-4.096 4.096-10.24 4.096-14.336 0l-18.432-18.432c-4.096-4.096-10.24-4.096-14.336 0s-4.096 10.24 0 14.336l18.432 18.432c11.264 11.264 31.744 11.264 43.008 0l29.696-29.696c4.096-4.096 4.096-10.24 0-14.336-1.024-2.048-4.096-3.072-6.144-3.072zM1003.52 477.696v-26.624l-7.168 7.168c-3.072 3.072-9.216 4.096-13.312 1.024 0 0-1.024-1.024-1.024-1.024l-29.696-29.696c-4.096-4.096-10.24-4.096-14.336 0 0 0 0 0 0 0s0 0 0 0c-3.072 4.096-3.072 10.24 0 14.336l29.696 29.696c4.096 4.096 10.24 7.168 15.36 8.192 7.168 1.024 14.336 0 20.48-3.072zM972.8 765.44h-921.6c-17.408 0-30.72-13.312-30.72-30.72v-573.44c0-17.408 13.312-30.72 30.72-30.72h921.6c17.408 0 30.72 13.312 30.72 30.72v573.44c0 17.408-13.312 30.72-30.72 30.72zM983.040 161.28c0-6.144-4.096-10.24-10.24-10.24h-921.6c-6.144 0-10.24 4.096-10.24 10.24v573.44c0 6.144 4.096 10.24 10.24 10.24h921.6c6.144 0 10.24-4.096 10.24-10.24v-573.44zM481.28 212.48c0-5.655-4.585-10.24-10.24-10.24s-10.24 4.585-10.24 10.24c0 5.655 4.585 10.24 10.24 10.24s10.24-4.585 10.24-10.24zM522.24 212.48c0-5.655-4.585-10.24-10.24-10.24s-10.24 4.585-10.24 10.24c0 5.655 4.585 10.24 10.24 10.24s10.24-4.585 10.24-10.24zM563.2 212.48c0-5.655-4.585-10.24-10.24-10.24s-10.24 4.585-10.24 10.24c0 5.655 4.585 10.24 10.24 10.24s10.24-4.585 10.24-10.24zM204.8 586.24h-102.4c-6.144 0-10.24 4.096-10.24 10.24s4.096 10.24 10.24 10.24h102.4c6.144 0 10.24-4.096 10.24-10.24s-5.12-10.24-10.24-10.24zM409.6 504.32h-307.2c-6.144 0-10.24 4.096-10.24 10.24s4.096 10.24 10.24 10.24h307.2c6.144 0 10.24-4.096 10.24-10.24s-5.12-10.24-10.24-10.24zM512 453.12h-409.6c-6.144 0-10.24 4.096-10.24 10.24s4.096 10.24 10.24 10.24h409.6c6.144 0 10.24-4.096 10.24-10.24s-5.12-10.24-10.24-10.24zM327.68 401.92h-225.28c-6.144 0-10.24 4.096-10.24 10.24s4.096 10.24 10.24 10.24h225.28c6.144 0 10.24-4.096 10.24-10.24s-5.12-10.24-10.24-10.24zM256 350.72c11.264 0 20.48-9.216 20.48-20.48s-9.216-20.48-20.48-20.48h-122.88c-11.264 0-20.48 9.216-20.48 20.48s9.216 20.48 20.48 20.48h122.88zM256 371.2h-122.88c-22.528 0-40.96-18.432-40.96-40.96s18.432-40.96 40.96-40.96h122.88c22.528 0 40.96 18.432 40.96 40.96s-18.432 40.96-40.96 40.96v0zM798.72 333.312h-215.040c-17.408 0-30.72 13.312-30.72 30.72v167.936c0 17.408 13.312 30.72 30.72 30.72h215.040c17.408 0 30.72-13.312 30.72-30.72v-166.912c0-17.408-13.312-31.744-30.72-31.744zM583.68 542.208c-6.144 0-10.24-4.096-10.24-10.24v-166.912c0-6.144 4.096-10.24 10.24-10.24h215.040c6.144 0 10.24 4.096 10.24 10.24v166.912c0 6.144-4.096 10.24-10.24 10.24h-215.040zM696.32 404.992c-3.072 0-5.12 1.024-7.168 3.072l-30.72 29.696c-4.096 4.096-10.24 4.096-14.336 0l-18.432-18.432c-4.096-4.096-10.24-4.096-14.336 0s-4.096 10.24 0 14.336l18.432 18.432c11.264 11.264 31.744 11.264 43.008 0l29.696-29.696c4.096-4.096 4.096-10.24 0-14.336-1.024-2.048-4.096-3.072-6.144-3.072zM763.904 425.472c-3.072 0-5.12 1.024-7.168 3.072l-29.696 29.696c-4.096 4.096-10.24 4.096-14.336 0l-29.696-29.696c-4.096-4.096-10.24-4.096-14.336 0s-4.096 10.24 0 14.336l29.696 29.696c12.288 12.288 31.744 12.288 43.008 0l29.696-29.696c4.096-4.096 4.096-10.24 0-14.336-1.024-2.048-4.096-3.072-7.168-3.072z" />
<glyph unicode="&#xe95d;" glyph-name="storker" d="M972.8 130.56h-921.6c-17.408 0-30.72 13.312-30.72 30.72v573.44c0 17.408 13.312 30.72 30.72 30.72h921.6c17.408 0 30.72-13.312 30.72-30.72v-573.44c0-17.408-13.312-30.72-30.72-30.72zM51.2 744.96c-6.144 0-10.24-4.096-10.24-10.24v-573.44c0-6.144 4.096-10.24 10.24-10.24h921.6c6.144 0 10.24 4.096 10.24 10.24v573.44c0 6.144-4.096 10.24-10.24 10.24h-921.6zM327.68 352.768h-204.8c-6.144 0-10.24 4.096-10.24 10.24s4.096 10.24 10.24 10.24h204.8c6.144 0 10.24-4.096 10.24-10.24 0-7.168-5.12-10.24-10.24-10.24zM225.28 522.752h-102.4c-6.144 0-10.24 4.096-10.24 10.24s4.096 10.24 10.24 10.24h102.4c6.144 0 10.24-4.096 10.24-10.24s-5.12-10.24-10.24-10.24zM491.52 456.192h-363.52c-8.192 0-15.36 7.168-15.36 15.36s7.168 15.36 15.36 15.36h363.52c8.192 0 15.36-7.168 15.36-15.36 0-7.168-7.168-15.36-15.36-15.36zM430.080 392.704h-307.2c-6.144 0-10.24 4.096-10.24 10.24s4.096 10.24 10.24 10.24h307.2c6.144 0 10.24-4.096 10.24-10.24s-5.12-10.24-10.24-10.24zM901.12 522.752h-241.664c-8.192 0-15.36 7.168-15.36 15.36v77.824c0 8.192 7.168 15.36 15.36 15.36h241.664c8.192 0 15.36-7.168 15.36-15.36v-77.824c0-8.192-7.168-15.36-15.36-15.36zM659.456 620.032c-3.072 0-5.12-2.048-5.12-5.12v-77.824c0-3.072 2.048-5.12 5.12-5.12h241.664c3.072 0 5.12 2.048 5.12 5.12v77.824c0 3.072-2.048 5.12-5.12 5.12h-241.664zM803.84 582.144h-122.88c-3.072 0-5.12 2.048-5.12 5.12v0c0 3.072 2.048 5.12 5.12 5.12h122.88c3.072 0 5.12-2.048 5.12-5.12v0c0-3.072-2.048-5.12-5.12-5.12zM752.64 561.664h-71.68c-3.072 0-5.12 2.048-5.12 5.12v0c0 3.072 2.048 5.12 5.12 5.12h71.68c3.072 0 5.12-2.048 5.12-5.12v0c0-3.072-2.048-5.12-5.12-5.12zM885.76 549.376h-26.624c-3.072 0-5.12 2.048-5.12 5.12v0c0 3.072 2.048 5.12 5.12 5.12h26.624c3.072 0 5.12-2.048 5.12-5.12v0c0-2.048-2.048-5.12-5.12-5.12zM901.12 393.728h-241.664c-8.192 0-15.36 7.168-15.36 15.36v77.824c0 8.192 7.168 15.36 15.36 15.36h241.664c8.192 0 15.36-7.168 15.36-15.36v-77.824c0-8.192-7.168-15.36-15.36-15.36zM659.456 492.032c-3.072 0-5.12-2.048-5.12-5.12v-77.824c0-3.072 2.048-5.12 5.12-5.12h241.664c3.072 0 5.12 2.048 5.12 5.12v77.824c0 3.072-2.048 5.12-5.12 5.12h-241.664zM803.84 453.12h-122.88c-3.072 0-5.12 2.048-5.12 5.12v0c0 3.072 2.048 5.12 5.12 5.12h122.88c3.072 0 5.12-2.048 5.12-5.12v0c0-3.072-2.048-5.12-5.12-5.12zM752.64 432.64h-71.68c-3.072 0-5.12 2.048-5.12 5.12v0c0 3.072 2.048 5.12 5.12 5.12h71.68c3.072 0 5.12-2.048 5.12-5.12v0c0-3.072-2.048-5.12-5.12-5.12zM885.76 421.376h-26.624c-3.072 0-5.12 2.048-5.12 5.12v0c0 3.072 2.048 5.12 5.12 5.12h26.624c3.072 0 5.12-2.048 5.12-5.12v0c0-3.072-2.048-5.12-5.12-5.12zM901.12 265.728h-241.664c-8.192 0-15.36 7.168-15.36 15.36v77.824c0 8.192 7.168 15.36 15.36 15.36h241.664c8.192 0 15.36-7.168 15.36-15.36v-77.824c0-9.216-7.168-15.36-15.36-15.36zM659.456 363.008c-3.072 0-5.12-2.048-5.12-5.12v-77.824c0-3.072 2.048-5.12 5.12-5.12h241.664c3.072 0 5.12 2.048 5.12 5.12v77.824c0 3.072-2.048 5.12-5.12 5.12h-241.664zM803.84 324.096h-122.88c-3.072 0-5.12 2.048-5.12 5.12v0c0 3.072 2.048 5.12 5.12 5.12h122.88c3.072 0 5.12-2.048 5.12-5.12v0c0-2.048-2.048-5.12-5.12-5.12zM752.64 303.616h-71.68c-3.072 0-5.12 2.048-5.12 5.12v0c0 3.072 2.048 5.12 5.12 5.12h71.68c3.072 0 5.12-2.048 5.12-5.12v0c0-2.048-2.048-5.12-5.12-5.12zM885.76 292.352h-26.624c-3.072 0-5.12 2.048-5.12 5.12v0c0 3.072 2.048 5.12 5.12 5.12h26.624c3.072 0 5.12-2.048 5.12-5.12v0c0-2.048-2.048-5.12-5.12-5.12z" />
</font>
</defs>
</svg>
